<svg width="220" height="220" viewBox="0 0 220 220" fill="none" xmlns="http://www.w3.org/2000/svg">
<mask id="mask0" mask-type="alpha" maskUnits="userSpaceOnUse" x="0" y="0" width="220" height="220">
<circle cx="110" cy="110" r="110" fill="#C4C4C4"/>
</mask>
<g mask="url(#mask0)">
<rect width="300" height="300" transform="translate(-40 -40)" fill="#C3BAB3"/>
<path d="M0 0H150V150L0 214.5V0Z" transform="translate(-40 -40)" fill="#C3BAB3"/>
<path d="M0 0H150V150L0 214.5V0Z" transform="translate(-40 -40)" fill="white" fill-opacity="0.3"/>
<path d="M3.07031 8.3125H4.27344C4.84635 8.3125 5.27083 8.16927 5.54688 7.88281C5.82292 7.59635 5.96094 7.21615 5.96094 6.74219C5.96094 6.28385 5.82292 5.92708 5.54688 5.67188C5.27604 5.41667 4.90104 5.28906 4.42188 5.28906C3.98958 5.28906 3.6276 5.40885 3.33594 5.64844C3.04427 5.88281 2.89844 6.1901 2.89844 6.57031H0.640625C0.640625 5.97656 0.799479 5.44531 1.11719 4.97656C1.4401 4.5026 1.88802 4.13281 2.46094 3.86719C3.03906 3.60156 3.67448 3.46875 4.36719 3.46875C5.57031 3.46875 6.51302 3.75781 7.19531 4.33594C7.8776 4.90885 8.21875 5.70052 8.21875 6.71094C8.21875 7.23177 8.0599 7.71094 7.74219 8.14844C7.42448 8.58594 7.00781 8.92188 6.49219 9.15625C7.13281 9.38542 7.60938 9.72917 7.92188 10.1875C8.23958 10.6458 8.39844 11.1875 8.39844 11.8125C8.39844 12.8229 8.02865 13.6328 7.28906 14.2422C6.55469 14.8516 5.58073 15.1562 4.36719 15.1562C3.23177 15.1562 2.30208 14.8568 1.57812 14.2578C0.859375 13.6589 0.5 12.8672 0.5 11.8828H2.75781C2.75781 12.3099 2.91667 12.6589 3.23438 12.9297C3.55729 13.2005 3.95312 13.3359 4.42188 13.3359C4.95833 13.3359 5.3776 13.1953 5.67969 12.9141C5.98698 12.6276 6.14062 12.25 6.14062 11.7812C6.14062 10.6458 5.51562 10.0781 4.26562 10.0781H3.07031V8.3125ZM17.7578 15H9.96094V13.4531L13.6406 9.53125C14.1458 8.97917 14.5182 8.4974 14.7578 8.08594C15.0026 7.67448 15.125 7.28385 15.125 6.91406C15.125 6.40885 14.9974 6.01302 14.7422 5.72656C14.487 5.4349 14.1224 5.28906 13.6484 5.28906C13.138 5.28906 12.7344 5.46615 12.4375 5.82031C12.1458 6.16927 12 6.63021 12 7.20312H9.73438C9.73438 6.51042 9.89844 5.8776 10.2266 5.30469C10.5599 4.73177 11.0286 4.28385 11.6328 3.96094C12.237 3.63281 12.9219 3.46875 13.6875 3.46875C14.8594 3.46875 15.7682 3.75 16.4141 4.3125C17.0651 4.875 17.3906 5.66927 17.3906 6.69531C17.3906 7.25781 17.2448 7.83073 16.9531 8.41406C16.6615 8.9974 16.1615 9.67708 15.4531 10.4531L12.8672 13.1797H17.7578V15ZM19.1172 5.8125C19.1172 5.11458 19.3438 4.54948 19.7969 4.11719C20.25 3.67969 20.8438 3.46094 21.5781 3.46094C22.3229 3.46094 22.9219 3.67708 23.375 4.10938C23.8281 4.53646 24.0547 5.11719 24.0547 5.85156V6.41406C24.0547 7.11719 23.8281 7.68229 23.375 8.10938C22.9219 8.53646 22.3281 8.75 21.5938 8.75C20.8542 8.75 20.2552 8.53646 19.7969 8.10938C19.3438 7.67708 19.1172 7.09635 19.1172 6.36719V5.8125ZM20.6172 6.41406C20.6172 6.72656 20.7057 6.97917 20.8828 7.17188C21.0651 7.35938 21.3021 7.45312 21.5938 7.45312C21.8854 7.45312 22.1172 7.35677 22.2891 7.16406C22.4609 6.97135 22.5469 6.71354 22.5469 6.39062V5.8125C22.5469 5.5 22.4609 5.2474 22.2891 5.05469C22.1172 4.86198 21.8802 4.76562 21.5781 4.76562C21.2917 4.76562 21.0599 4.86198 20.8828 5.05469C20.7057 5.24219 20.6172 5.50521 20.6172 5.84375V6.41406ZM24.5547 12.2109C24.5547 11.5078 24.7839 10.9427 25.2422 10.5156C25.7005 10.0833 26.2943 9.86719 27.0234 9.86719C27.763 9.86719 28.3594 10.0807 28.8125 10.5078C29.2708 10.9297 29.5 11.513 29.5 12.2578V12.8203C29.5 13.5182 29.276 14.0833 28.8281 14.5156C28.3802 14.9427 27.7839 15.1562 27.0391 15.1562C26.2891 15.1562 25.6875 14.9401 25.2344 14.5078C24.7812 14.0755 24.5547 13.5026 24.5547 12.7891V12.2109ZM26.0547 12.8203C26.0547 13.1068 26.1484 13.3516 26.3359 13.5547C26.5234 13.7578 26.7578 13.8594 27.0391 13.8594C27.6745 13.8594 27.9922 13.5078 27.9922 12.8047V12.2109C27.9922 11.8984 27.9036 11.6484 27.7266 11.4609C27.5495 11.2682 27.3151 11.1719 27.0234 11.1719C26.7318 11.1719 26.4974 11.2682 26.3203 11.4609C26.1432 11.6484 26.0547 11.9062 26.0547 12.2344V12.8203ZM22.0391 14.1484L20.9375 13.5547L26.4922 4.66406L27.5938 5.25781L22.0391 14.1484Z" transform="translate(36 61)" fill="white"/>
<path d="M6.89844 3.50781V5.36719H6.67969C5.65885 5.38281 4.83594 5.64844 4.21094 6.16406C3.59115 6.67969 3.21875 7.39583 3.09375 8.3125C3.69792 7.69792 4.46094 7.39062 5.38281 7.39062C6.3724 7.39062 7.15885 7.74479 7.74219 8.45312C8.32552 9.16146 8.61719 10.0938 8.61719 11.25C8.61719 11.9896 8.45573 12.6589 8.13281 13.2578C7.8151 13.8568 7.36198 14.3229 6.77344 14.6562C6.1901 14.9896 5.52865 15.1562 4.78906 15.1562C3.59115 15.1562 2.6224 14.7396 1.88281 13.9062C1.14844 13.0729 0.78125 11.9609 0.78125 10.5703V9.75781C0.78125 8.52344 1.01302 7.4349 1.47656 6.49219C1.94531 5.54427 2.61458 4.8125 3.48438 4.29688C4.35938 3.77604 5.3724 3.51302 6.52344 3.50781H6.89844ZM4.69531 9.20312C4.33073 9.20312 4 9.29948 3.70312 9.49219C3.40625 9.67969 3.1875 9.92969 3.04688 10.2422V10.9297C3.04688 11.6849 3.19531 12.276 3.49219 12.7031C3.78906 13.125 4.20573 13.3359 4.74219 13.3359C5.22656 13.3359 5.61719 13.1458 5.91406 12.7656C6.21615 12.3802 6.36719 11.8828 6.36719 11.2734C6.36719 10.6536 6.21615 10.1536 5.91406 9.77344C5.61198 9.39323 5.20573 9.20312 4.69531 9.20312ZM17.375 6.64844C17.375 7.20052 17.237 7.6901 16.9609 8.11719C16.6849 8.54427 16.3047 8.88542 15.8203 9.14062C16.3724 9.40625 16.8099 9.77344 17.1328 10.2422C17.4557 10.7057 17.6172 11.2526 17.6172 11.8828C17.6172 12.8932 17.2734 13.6927 16.5859 14.2812C15.8984 14.8646 14.9635 15.1562 13.7812 15.1562C12.599 15.1562 11.6615 14.862 10.9688 14.2734C10.276 13.6849 9.92969 12.888 9.92969 11.8828C9.92969 11.2526 10.0911 10.7031 10.4141 10.2344C10.737 9.76562 11.1719 9.40104 11.7188 9.14062C11.2344 8.88542 10.8542 8.54427 10.5781 8.11719C10.3073 7.6901 10.1719 7.20052 10.1719 6.64844C10.1719 5.67969 10.4948 4.90885 11.1406 4.33594C11.7865 3.75781 12.6641 3.46875 13.7734 3.46875C14.8776 3.46875 15.7526 3.75521 16.3984 4.32812C17.0495 4.89583 17.375 5.66927 17.375 6.64844ZM15.3516 11.7188C15.3516 11.224 15.2083 10.8281 14.9219 10.5312C14.6354 10.2344 14.25 10.0859 13.7656 10.0859C13.2865 10.0859 12.9036 10.2344 12.6172 10.5312C12.3307 10.8229 12.1875 11.2188 12.1875 11.7188C12.1875 12.2031 12.3281 12.5938 12.6094 12.8906C12.8906 13.1875 13.2812 13.3359 13.7812 13.3359C14.2708 13.3359 14.6536 13.1927 14.9297 12.9062C15.2109 12.6198 15.3516 12.224 15.3516 11.7188ZM15.1172 6.75781C15.1172 6.3151 15 5.96094 14.7656 5.69531C14.5312 5.42448 14.2005 5.28906 13.7734 5.28906C13.3516 5.28906 13.0234 5.41927 12.7891 5.67969C12.5547 5.9401 12.4375 6.29948 12.4375 6.75781C12.4375 7.21094 12.5547 7.57552 12.7891 7.85156C13.0234 8.1276 13.3542 8.26562 13.7812 8.26562C14.2083 8.26562 14.5365 8.1276 14.7656 7.85156C15 7.57552 15.1172 7.21094 15.1172 6.75781ZM19.1172 5.8125C19.1172 5.11458 19.3438 4.54948 19.7969 4.11719C20.25 3.67969 20.8438 3.46094 21.5781 3.46094C22.3229 3.46094 22.9219 3.67708 23.375 4.10938C23.8281 4.53646 24.0547 5.11719 24.0547 5.85156V6.41406C24.0547 7.11719 23.8281 7.68229 23.375 8.10938C22.9219 8.53646 22.3281 8.75 21.5938 8.75C20.8542 8.75 20.2552 8.53646 19.7969 8.10938C19.3438 7.67708 19.1172 7.09635 19.1172 6.36719V5.8125ZM20.6172 6.41406C20.6172 6.72656 20.7057 6.97917 20.8828 7.17188C21.0651 7.35938 21.3021 7.45312 21.5938 7.45312C21.8854 7.45312 22.1172 7.35677 22.2891 7.16406C22.4609 6.97135 22.5469 6.71354 22.5469 6.39062V5.8125C22.5469 5.5 22.4609 5.2474 22.2891 5.05469C22.1172 4.86198 21.8802 4.76562 21.5781 4.76562C21.2917 4.76562 21.0599 4.86198 20.8828 5.05469C20.7057 5.24219 20.6172 5.50521 20.6172 5.84375V6.41406ZM24.5547 12.2109C24.5547 11.5078 24.7839 10.9427 25.2422 10.5156C25.7005 10.0833 26.2943 9.86719 27.0234 9.86719C27.763 9.86719 28.3594 10.0807 28.8125 10.5078C29.2708 10.9297 29.5 11.513 29.5 12.2578V12.8203C29.5 13.5182 29.276 14.0833 28.8281 14.5156C28.3802 14.9427 27.7839 15.1562 27.0391 15.1562C26.2891 15.1562 25.6875 14.9401 25.2344 14.5078C24.7812 14.0755 24.5547 13.5026 24.5547 12.7891V12.2109ZM26.0547 12.8203C26.0547 13.1068 26.1484 13.3516 26.3359 13.5547C26.5234 13.7578 26.7578 13.8594 27.0391 13.8594C27.6745 13.8594 27.9922 13.5078 27.9922 12.8047V12.2109C27.9922 11.8984 27.9036 11.6484 27.7266 11.4609C27.5495 11.2682 27.3151 11.1719 27.0234 11.1719C26.7318 11.1719 26.4974 11.2682 26.3203 11.4609C26.1432 11.6484 26.0547 11.9062 26.0547 12.2344V12.8203ZM22.0391 14.1484L20.9375 13.5547L26.4922 4.66406L27.5938 5.25781L22.0391 14.1484Z" transform="translate(150 147)" fill="white"/>
<g filter="url(#filter0_d)">
<circle cx="40" cy="40" r="40" transform="translate(70 70)" fill="white"/>
</g>
</g>
<defs>
<filter id="filter0_d" x="46" y="54" width="128" height="128" filterUnits="userSpaceOnUse" color-interpolation-filters="sRGB">
<feFlood flood-opacity="0" result="BackgroundImageFix"/>
<feColorMatrix in="SourceAlpha" type="matrix" values="0 0 0 0 0 0 0 0 0 0 0 0 0 0 0 0 0 0 255 0"/>
<feOffset dy="8"/>
<feGaussianBlur stdDeviation="12"/>
<feColorMatrix type="matrix" values="0 0 0 0 0 0 0 0 0 0 0 0 0 0 0 0 0 0 0.15 0"/>
<feBlend mode="normal" in2="BackgroundImageFix" result="effect1_dropShadow"/>
<feBlend mode="normal" in="SourceGraphic" in2="effect1_dropShadow" result="shape"/>
</filter>
</defs>
</svg>
