<svg width="220" height="220" viewBox="0 0 220 220" fill="none" xmlns="http://www.w3.org/2000/svg">
<mask id="mask0" mask-type="alpha" maskUnits="userSpaceOnUse" x="0" y="0" width="220" height="220">
<circle cx="110" cy="110" r="110" fill="#C4C4C4"/>
</mask>
<g mask="url(#mask0)">
<rect width="300" height="300" transform="translate(-40 -40)" fill="#660035"/>
<rect width="300" height="300" transform="translate(-40 -40)" fill="white" fill-opacity="0.6"/>
<path d="M0 0H150V150L0 54V0Z" transform="translate(-40 -40)" fill="#660035"/>
<path d="M0 0H150V150L0 54V0Z" transform="translate(-40 -40)" fill="white" fill-opacity="0.7"/>
<path d="M0 0H150V183.5L0 150V0Z" transform="translate(110 -40)" fill="#660035"/>
<path d="M0 0L150 33.5V150H33.5L0 0Z" transform="translate(110 110)" fill="#660035"/>
<path d="M0 0L150 33.5V150H33.5L0 0Z" transform="translate(110 110)" fill="white" fill-opacity="0.2"/>
<path d="M0 77.5L150 0L184 150H0V77.5Z" transform="translate(-40 110)" fill="#660035"/>
<path d="M0 77.5L150 0L184 150H0V77.5Z" transform="translate(-40 110)" fill="white" fill-opacity="0.4"/>
<path d="M8.57031 15H0.773438V13.4531L4.45312 9.53125C4.95833 8.97917 5.33073 8.4974 5.57031 8.08594C5.8151 7.67448 5.9375 7.28385 5.9375 6.91406C5.9375 6.40885 5.8099 6.01302 5.55469 5.72656C5.29948 5.4349 4.9349 5.28906 4.46094 5.28906C3.95052 5.28906 3.54688 5.46615 3.25 5.82031C2.95833 6.16927 2.8125 6.63021 2.8125 7.20312H0.546875C0.546875 6.51042 0.710938 5.8776 1.03906 5.30469C1.3724 4.73177 1.84115 4.28385 2.44531 3.96094C3.04948 3.63281 3.73438 3.46875 4.5 3.46875C5.67188 3.46875 6.58073 3.75 7.22656 4.3125C7.8776 4.875 8.20312 5.66927 8.20312 6.69531C8.20312 7.25781 8.05729 7.83073 7.76562 8.41406C7.47396 8.9974 6.97396 9.67708 6.26562 10.4531L3.67969 13.1797H8.57031V15ZM15.2422 10.4531C14.6536 11.0312 13.9661 11.3203 13.1797 11.3203C12.1745 11.3203 11.3698 10.9766 10.7656 10.2891C10.1615 9.59635 9.85938 8.66406 9.85938 7.49219C9.85938 6.7474 10.0208 6.0651 10.3438 5.44531C10.6719 4.82031 11.1276 4.33594 11.7109 3.99219C12.2943 3.64323 12.9505 3.46875 13.6797 3.46875C14.4297 3.46875 15.0964 3.65625 15.6797 4.03125C16.263 4.40625 16.7161 4.94531 17.0391 5.64844C17.362 6.35156 17.526 7.15625 17.5312 8.0625V8.89844C17.5312 10.7943 17.0599 12.2839 16.1172 13.3672C15.1745 14.4505 13.8385 15.0286 12.1094 15.1016L11.5547 15.1094V13.2266L12.0547 13.2188C14.0182 13.1302 15.0807 12.2083 15.2422 10.4531ZM13.7344 9.59375C14.099 9.59375 14.4115 9.5 14.6719 9.3125C14.9375 9.125 15.138 8.89844 15.2734 8.63281V7.70312C15.2734 6.9375 15.1276 6.34375 14.8359 5.92188C14.5443 5.5 14.1536 5.28906 13.6641 5.28906C13.2109 5.28906 12.8385 5.4974 12.5469 5.91406C12.2552 6.32552 12.1094 6.84375 12.1094 7.46875C12.1094 8.08854 12.25 8.59896 12.5312 9C12.8177 9.39583 13.2188 9.59375 13.7344 9.59375ZM19.1172 5.8125C19.1172 5.11458 19.3438 4.54948 19.7969 4.11719C20.25 3.67969 20.8438 3.46094 21.5781 3.46094C22.3229 3.46094 22.9219 3.67708 23.375 4.10938C23.8281 4.53646 24.0547 5.11719 24.0547 5.85156V6.41406C24.0547 7.11719 23.8281 7.68229 23.375 8.10938C22.9219 8.53646 22.3281 8.75 21.5938 8.75C20.8542 8.75 20.2552 8.53646 19.7969 8.10938C19.3438 7.67708 19.1172 7.09635 19.1172 6.36719V5.8125ZM20.6172 6.41406C20.6172 6.72656 20.7057 6.97917 20.8828 7.17188C21.0651 7.35938 21.3021 7.45312 21.5938 7.45312C21.8854 7.45312 22.1172 7.35677 22.2891 7.16406C22.4609 6.97135 22.5469 6.71354 22.5469 6.39062V5.8125C22.5469 5.5 22.4609 5.2474 22.2891 5.05469C22.1172 4.86198 21.8802 4.76562 21.5781 4.76562C21.2917 4.76562 21.0599 4.86198 20.8828 5.05469C20.7057 5.24219 20.6172 5.50521 20.6172 5.84375V6.41406ZM24.5547 12.2109C24.5547 11.5078 24.7839 10.9427 25.2422 10.5156C25.7005 10.0833 26.2943 9.86719 27.0234 9.86719C27.763 9.86719 28.3594 10.0807 28.8125 10.5078C29.2708 10.9297 29.5 11.513 29.5 12.2578V12.8203C29.5 13.5182 29.276 14.0833 28.8281 14.5156C28.3802 14.9427 27.7839 15.1562 27.0391 15.1562C26.2891 15.1562 25.6875 14.9401 25.2344 14.5078C24.7812 14.0755 24.5547 13.5026 24.5547 12.7891V12.2109ZM26.0547 12.8203C26.0547 13.1068 26.1484 13.3516 26.3359 13.5547C26.5234 13.7578 26.7578 13.8594 27.0391 13.8594C27.6745 13.8594 27.9922 13.5078 27.9922 12.8047V12.2109C27.9922 11.8984 27.9036 11.6484 27.7266 11.4609C27.5495 11.2682 27.3151 11.1719 27.0234 11.1719C26.7318 11.1719 26.4974 11.2682 26.3203 11.4609C26.1432 11.6484 26.0547 11.9062 26.0547 12.2344V12.8203ZM22.0391 14.1484L20.9375 13.5547L26.4922 4.66406L27.5938 5.25781L22.0391 14.1484Z" transform="translate(159 56)" fill="white"/>
<path d="M6.25781 15H4V6.29688L1.30469 7.13281V5.29688L6.01562 3.60938H6.25781V15ZM17.6953 4.89062L13.2969 15H10.9141L15.3203 5.45312H9.66406V3.625H17.6953V4.89062ZM19.1172 5.8125C19.1172 5.11458 19.3438 4.54948 19.7969 4.11719C20.25 3.67969 20.8438 3.46094 21.5781 3.46094C22.3229 3.46094 22.9219 3.67708 23.375 4.10938C23.8281 4.53646 24.0547 5.11719 24.0547 5.85156V6.41406C24.0547 7.11719 23.8281 7.68229 23.375 8.10938C22.9219 8.53646 22.3281 8.75 21.5938 8.75C20.8542 8.75 20.2552 8.53646 19.7969 8.10938C19.3438 7.67708 19.1172 7.09635 19.1172 6.36719V5.8125ZM20.6172 6.41406C20.6172 6.72656 20.7057 6.97917 20.8828 7.17188C21.0651 7.35938 21.3021 7.45312 21.5938 7.45312C21.8854 7.45312 22.1172 7.35677 22.2891 7.16406C22.4609 6.97135 22.5469 6.71354 22.5469 6.39062V5.8125C22.5469 5.5 22.4609 5.2474 22.2891 5.05469C22.1172 4.86198 21.8802 4.76562 21.5781 4.76562C21.2917 4.76562 21.0599 4.86198 20.8828 5.05469C20.7057 5.24219 20.6172 5.50521 20.6172 5.84375V6.41406ZM24.5547 12.2109C24.5547 11.5078 24.7839 10.9427 25.2422 10.5156C25.7005 10.0833 26.2943 9.86719 27.0234 9.86719C27.763 9.86719 28.3594 10.0807 28.8125 10.5078C29.2708 10.9297 29.5 11.513 29.5 12.2578V12.8203C29.5 13.5182 29.276 14.0833 28.8281 14.5156C28.3802 14.9427 27.7839 15.1562 27.0391 15.1562C26.2891 15.1562 25.6875 14.9401 25.2344 14.5078C24.7812 14.0755 24.5547 13.5026 24.5547 12.7891V12.2109ZM26.0547 12.8203C26.0547 13.1068 26.1484 13.3516 26.3359 13.5547C26.5234 13.7578 26.7578 13.8594 27.0391 13.8594C27.6745 13.8594 27.9922 13.5078 27.9922 12.8047V12.2109C27.9922 11.8984 27.9036 11.6484 27.7266 11.4609C27.5495 11.2682 27.3151 11.1719 27.0234 11.1719C26.7318 11.1719 26.4974 11.2682 26.3203 11.4609C26.1432 11.6484 26.0547 11.9062 26.0547 12.2344V12.8203ZM22.0391 14.1484L20.9375 13.5547L26.4922 4.66406L27.5938 5.25781L22.0391 14.1484Z" transform="translate(155 154)" fill="white"/>
<path d="M8.57031 15H0.773438V13.4531L4.45312 9.53125C4.95833 8.97917 5.33073 8.4974 5.57031 8.08594C5.8151 7.67448 5.9375 7.28385 5.9375 6.91406C5.9375 6.40885 5.8099 6.01302 5.55469 5.72656C5.29948 5.4349 4.9349 5.28906 4.46094 5.28906C3.95052 5.28906 3.54688 5.46615 3.25 5.82031C2.95833 6.16927 2.8125 6.63021 2.8125 7.20312H0.546875C0.546875 6.51042 0.710938 5.8776 1.03906 5.30469C1.3724 4.73177 1.84115 4.28385 2.44531 3.96094C3.04948 3.63281 3.73438 3.46875 4.5 3.46875C5.67188 3.46875 6.58073 3.75 7.22656 4.3125C7.8776 4.875 8.20312 5.66927 8.20312 6.69531C8.20312 7.25781 8.05729 7.83073 7.76562 8.41406C7.47396 8.9974 6.97396 9.67708 6.26562 10.4531L3.67969 13.1797H8.57031V15ZM15.4453 15H13.1875V6.29688L10.4922 7.13281V5.29688L15.2031 3.60938H15.4453V15ZM19.1172 5.8125C19.1172 5.11458 19.3438 4.54948 19.7969 4.11719C20.25 3.67969 20.8438 3.46094 21.5781 3.46094C22.3229 3.46094 22.9219 3.67708 23.375 4.10938C23.8281 4.53646 24.0547 5.11719 24.0547 5.85156V6.41406C24.0547 7.11719 23.8281 7.68229 23.375 8.10938C22.9219 8.53646 22.3281 8.75 21.5938 8.75C20.8542 8.75 20.2552 8.53646 19.7969 8.10938C19.3438 7.67708 19.1172 7.09635 19.1172 6.36719V5.8125ZM20.6172 6.41406C20.6172 6.72656 20.7057 6.97917 20.8828 7.17188C21.0651 7.35938 21.3021 7.45312 21.5938 7.45312C21.8854 7.45312 22.1172 7.35677 22.2891 7.16406C22.4609 6.97135 22.5469 6.71354 22.5469 6.39062V5.8125C22.5469 5.5 22.4609 5.2474 22.2891 5.05469C22.1172 4.86198 21.8802 4.76562 21.5781 4.76562C21.2917 4.76562 21.0599 4.86198 20.8828 5.05469C20.7057 5.24219 20.6172 5.50521 20.6172 5.84375V6.41406ZM24.5547 12.2109C24.5547 11.5078 24.7839 10.9427 25.2422 10.5156C25.7005 10.0833 26.2943 9.86719 27.0234 9.86719C27.763 9.86719 28.3594 10.0807 28.8125 10.5078C29.2708 10.9297 29.5 11.513 29.5 12.2578V12.8203C29.5 13.5182 29.276 14.0833 28.8281 14.5156C28.3802 14.9427 27.7839 15.1562 27.0391 15.1562C26.2891 15.1562 25.6875 14.9401 25.2344 14.5078C24.7812 14.0755 24.5547 13.5026 24.5547 12.7891V12.2109ZM26.0547 12.8203C26.0547 13.1068 26.1484 13.3516 26.3359 13.5547C26.5234 13.7578 26.7578 13.8594 27.0391 13.8594C27.6745 13.8594 27.9922 13.5078 27.9922 12.8047V12.2109C27.9922 11.8984 27.9036 11.6484 27.7266 11.4609C27.5495 11.2682 27.3151 11.1719 27.0234 11.1719C26.7318 11.1719 26.4974 11.2682 26.3203 11.4609C26.1432 11.6484 26.0547 11.9062 26.0547 12.2344V12.8203ZM22.0391 14.1484L20.9375 13.5547L26.4922 4.66406L27.5938 5.25781L22.0391 14.1484Z" transform="translate(66 171)" fill="white"/>
<path d="M6.25781 15H4V6.29688L1.30469 7.13281V5.29688L6.01562 3.60938H6.25781V15ZM15.2422 10.4531C14.6536 11.0312 13.9661 11.3203 13.1797 11.3203C12.1745 11.3203 11.3698 10.9766 10.7656 10.2891C10.1615 9.59635 9.85938 8.66406 9.85938 7.49219C9.85938 6.7474 10.0208 6.0651 10.3438 5.44531C10.6719 4.82031 11.1276 4.33594 11.7109 3.99219C12.2943 3.64323 12.9505 3.46875 13.6797 3.46875C14.4297 3.46875 15.0964 3.65625 15.6797 4.03125C16.263 4.40625 16.7161 4.94531 17.0391 5.64844C17.362 6.35156 17.526 7.15625 17.5312 8.0625V8.89844C17.5312 10.7943 17.0599 12.2839 16.1172 13.3672C15.1745 14.4505 13.8385 15.0286 12.1094 15.1016L11.5547 15.1094V13.2266L12.0547 13.2188C14.0182 13.1302 15.0807 12.2083 15.2422 10.4531ZM13.7344 9.59375C14.099 9.59375 14.4115 9.5 14.6719 9.3125C14.9375 9.125 15.138 8.89844 15.2734 8.63281V7.70312C15.2734 6.9375 15.1276 6.34375 14.8359 5.92188C14.5443 5.5 14.1536 5.28906 13.6641 5.28906C13.2109 5.28906 12.8385 5.4974 12.5469 5.91406C12.2552 6.32552 12.1094 6.84375 12.1094 7.46875C12.1094 8.08854 12.25 8.59896 12.5312 9C12.8177 9.39583 13.2188 9.59375 13.7344 9.59375ZM19.1172 5.8125C19.1172 5.11458 19.3438 4.54948 19.7969 4.11719C20.25 3.67969 20.8438 3.46094 21.5781 3.46094C22.3229 3.46094 22.9219 3.67708 23.375 4.10938C23.8281 4.53646 24.0547 5.11719 24.0547 5.85156V6.41406C24.0547 7.11719 23.8281 7.68229 23.375 8.10938C22.9219 8.53646 22.3281 8.75 21.5938 8.75C20.8542 8.75 20.2552 8.53646 19.7969 8.10938C19.3438 7.67708 19.1172 7.09635 19.1172 6.36719V5.8125ZM20.6172 6.41406C20.6172 6.72656 20.7057 6.97917 20.8828 7.17188C21.0651 7.35938 21.3021 7.45312 21.5938 7.45312C21.8854 7.45312 22.1172 7.35677 22.2891 7.16406C22.4609 6.97135 22.5469 6.71354 22.5469 6.39062V5.8125C22.5469 5.5 22.4609 5.2474 22.2891 5.05469C22.1172 4.86198 21.8802 4.76562 21.5781 4.76562C21.2917 4.76562 21.0599 4.86198 20.8828 5.05469C20.7057 5.24219 20.6172 5.50521 20.6172 5.84375V6.41406ZM24.5547 12.2109C24.5547 11.5078 24.7839 10.9427 25.2422 10.5156C25.7005 10.0833 26.2943 9.86719 27.0234 9.86719C27.763 9.86719 28.3594 10.0807 28.8125 10.5078C29.2708 10.9297 29.5 11.513 29.5 12.2578V12.8203C29.5 13.5182 29.276 14.0833 28.8281 14.5156C28.3802 14.9427 27.7839 15.1562 27.0391 15.1562C26.2891 15.1562 25.6875 14.9401 25.2344 14.5078C24.7812 14.0755 24.5547 13.5026 24.5547 12.7891V12.2109ZM26.0547 12.8203C26.0547 13.1068 26.1484 13.3516 26.3359 13.5547C26.5234 13.7578 26.7578 13.8594 27.0391 13.8594C27.6745 13.8594 27.9922 13.5078 27.9922 12.8047V12.2109C27.9922 11.8984 27.9036 11.6484 27.7266 11.4609C27.5495 11.2682 27.3151 11.1719 27.0234 11.1719C26.7318 11.1719 26.4974 11.2682 26.3203 11.4609C26.1432 11.6484 26.0547 11.9062 26.0547 12.2344V12.8203ZM22.0391 14.1484L20.9375 13.5547L26.4922 4.66406L27.5938 5.25781L22.0391 14.1484Z" transform="translate(22 100)" fill="white"/>
<path d="M6.25781 15H4V6.29688L1.30469 7.13281V5.29688L6.01562 3.60938H6.25781V15ZM16.6406 10.7188H17.9297V12.5391H16.6406V15H14.3828V12.5391H9.71875L9.61719 11.1172L14.3594 3.625H16.6406V10.7188ZM11.8672 10.7188H14.3828V6.70312L14.2344 6.96094L11.8672 10.7188ZM19.1172 5.8125C19.1172 5.11458 19.3438 4.54948 19.7969 4.11719C20.25 3.67969 20.8438 3.46094 21.5781 3.46094C22.3229 3.46094 22.9219 3.67708 23.375 4.10938C23.8281 4.53646 24.0547 5.11719 24.0547 5.85156V6.41406C24.0547 7.11719 23.8281 7.68229 23.375 8.10938C22.9219 8.53646 22.3281 8.75 21.5938 8.75C20.8542 8.75 20.2552 8.53646 19.7969 8.10938C19.3438 7.67708 19.1172 7.09635 19.1172 6.36719V5.8125ZM20.6172 6.41406C20.6172 6.72656 20.7057 6.97917 20.8828 7.17188C21.0651 7.35938 21.3021 7.45312 21.5938 7.45312C21.8854 7.45312 22.1172 7.35677 22.2891 7.16406C22.4609 6.97135 22.5469 6.71354 22.5469 6.39062V5.8125C22.5469 5.5 22.4609 5.2474 22.2891 5.05469C22.1172 4.86198 21.8802 4.76562 21.5781 4.76562C21.2917 4.76562 21.0599 4.86198 20.8828 5.05469C20.7057 5.24219 20.6172 5.50521 20.6172 5.84375V6.41406ZM24.5547 12.2109C24.5547 11.5078 24.7839 10.9427 25.2422 10.5156C25.7005 10.0833 26.2943 9.86719 27.0234 9.86719C27.763 9.86719 28.3594 10.0807 28.8125 10.5078C29.2708 10.9297 29.5 11.513 29.5 12.2578V12.8203C29.5 13.5182 29.276 14.0833 28.8281 14.5156C28.3802 14.9427 27.7839 15.1562 27.0391 15.1562C26.2891 15.1562 25.6875 14.9401 25.2344 14.5078C24.7812 14.0755 24.5547 13.5026 24.5547 12.7891V12.2109ZM26.0547 12.8203C26.0547 13.1068 26.1484 13.3516 26.3359 13.5547C26.5234 13.7578 26.7578 13.8594 27.0391 13.8594C27.6745 13.8594 27.9922 13.5078 27.9922 12.8047V12.2109C27.9922 11.8984 27.9036 11.6484 27.7266 11.4609C27.5495 11.2682 27.3151 11.1719 27.0234 11.1719C26.7318 11.1719 26.4974 11.2682 26.3203 11.4609C26.1432 11.6484 26.0547 11.9062 26.0547 12.2344V12.8203ZM22.0391 14.1484L20.9375 13.5547L26.4922 4.66406L27.5938 5.25781L22.0391 14.1484Z" transform="translate(56 33)" fill="white"/>
<g filter="url(#filter0_d)">
<circle cx="40" cy="40" r="40" transform="translate(70 70)" fill="white"/>
</g>
</g>
<defs>
<filter id="filter0_d" x="46" y="54" width="128" height="128" filterUnits="userSpaceOnUse" color-interpolation-filters="sRGB">
<feFlood flood-opacity="0" result="BackgroundImageFix"/>
<feColorMatrix in="SourceAlpha" type="matrix" values="0 0 0 0 0 0 0 0 0 0 0 0 0 0 0 0 0 0 255 0"/>
<feOffset dy="8"/>
<feGaussianBlur stdDeviation="12"/>
<feColorMatrix type="matrix" values="0 0 0 0 0 0 0 0 0 0 0 0 0 0 0 0 0 0 0.15 0"/>
<feBlend mode="normal" in2="BackgroundImageFix" result="effect1_dropShadow"/>
<feBlend mode="normal" in="SourceGraphic" in2="effect1_dropShadow" result="shape"/>
</filter>
</defs>
</svg>
