<svg width="220" height="220" viewBox="0 0 220 220" fill="none" xmlns="http://www.w3.org/2000/svg">
<mask id="mask0" mask-type="alpha" maskUnits="userSpaceOnUse" x="0" y="0" width="220" height="220">
<circle cx="110" cy="110" r="110" fill="#C4C4C4"/>
</mask>
<g mask="url(#mask0)">
<rect width="300" height="300" transform="translate(-40 -40)" fill="#395D92"/>
<path d="M0 0H150V150L0 201.5V0Z" transform="translate(-40 -40)" fill="#395D92"/>
<path d="M0 0H150V150L0 201.5V0Z" transform="translate(-40 -40)" fill="white" fill-opacity="0.2"/>
<path d="M0 0H150V6.5L0 150V0Z" transform="translate(110 -40)" fill="#395D92"/>
<path d="M0 0H150V6.5L0 150V0Z" transform="translate(110 -40)" fill="white" fill-opacity="0.4"/>
<path d="M0 143.5L150 0V42.5V109L0 143.5Z" transform="translate(110 -33.5)" fill="#395D92"/>
<path d="M0 143.5L150 0V42.5V109L0 143.5Z" transform="translate(110 -33.5)" fill="white" fill-opacity="0.6"/>
<path d="M7.45312 10.7188H8.74219V12.5391H7.45312V15H5.19531V12.5391H0.53125L0.429688 11.1172L5.17188 3.625H7.45312V10.7188ZM2.67969 10.7188H5.19531V6.70312L5.04688 6.96094L2.67969 10.7188ZM17.6953 4.89062L13.2969 15H10.9141L15.3203 5.45312H9.66406V3.625H17.6953V4.89062ZM19.1172 5.8125C19.1172 5.11458 19.3438 4.54948 19.7969 4.11719C20.25 3.67969 20.8438 3.46094 21.5781 3.46094C22.3229 3.46094 22.9219 3.67708 23.375 4.10938C23.8281 4.53646 24.0547 5.11719 24.0547 5.85156V6.41406C24.0547 7.11719 23.8281 7.68229 23.375 8.10938C22.9219 8.53646 22.3281 8.75 21.5938 8.75C20.8542 8.75 20.2552 8.53646 19.7969 8.10938C19.3438 7.67708 19.1172 7.09635 19.1172 6.36719V5.8125ZM20.6172 6.41406C20.6172 6.72656 20.7057 6.97917 20.8828 7.17188C21.0651 7.35938 21.3021 7.45312 21.5938 7.45312C21.8854 7.45312 22.1172 7.35677 22.2891 7.16406C22.4609 6.97135 22.5469 6.71354 22.5469 6.39062V5.8125C22.5469 5.5 22.4609 5.2474 22.2891 5.05469C22.1172 4.86198 21.8802 4.76562 21.5781 4.76562C21.2917 4.76562 21.0599 4.86198 20.8828 5.05469C20.7057 5.24219 20.6172 5.50521 20.6172 5.84375V6.41406ZM24.5547 12.2109C24.5547 11.5078 24.7839 10.9427 25.2422 10.5156C25.7005 10.0833 26.2943 9.86719 27.0234 9.86719C27.763 9.86719 28.3594 10.0807 28.8125 10.5078C29.2708 10.9297 29.5 11.513 29.5 12.2578V12.8203C29.5 13.5182 29.276 14.0833 28.8281 14.5156C28.3802 14.9427 27.7839 15.1562 27.0391 15.1562C26.2891 15.1562 25.6875 14.9401 25.2344 14.5078C24.7812 14.0755 24.5547 13.5026 24.5547 12.7891V12.2109ZM26.0547 12.8203C26.0547 13.1068 26.1484 13.3516 26.3359 13.5547C26.5234 13.7578 26.7578 13.8594 27.0391 13.8594C27.6745 13.8594 27.9922 13.5078 27.9922 12.8047V12.2109C27.9922 11.8984 27.9036 11.6484 27.7266 11.4609C27.5495 11.2682 27.3151 11.1719 27.0234 11.1719C26.7318 11.1719 26.4974 11.2682 26.3203 11.4609C26.1432 11.6484 26.0547 11.9062 26.0547 12.2344V12.8203ZM22.0391 14.1484L20.9375 13.5547L26.4922 4.66406L27.5938 5.25781L22.0391 14.1484Z" transform="translate(120 175)" fill="white"/>
<path d="M3.07031 8.3125H4.27344C4.84635 8.3125 5.27083 8.16927 5.54688 7.88281C5.82292 7.59635 5.96094 7.21615 5.96094 6.74219C5.96094 6.28385 5.82292 5.92708 5.54688 5.67188C5.27604 5.41667 4.90104 5.28906 4.42188 5.28906C3.98958 5.28906 3.6276 5.40885 3.33594 5.64844C3.04427 5.88281 2.89844 6.1901 2.89844 6.57031H0.640625C0.640625 5.97656 0.799479 5.44531 1.11719 4.97656C1.4401 4.5026 1.88802 4.13281 2.46094 3.86719C3.03906 3.60156 3.67448 3.46875 4.36719 3.46875C5.57031 3.46875 6.51302 3.75781 7.19531 4.33594C7.8776 4.90885 8.21875 5.70052 8.21875 6.71094C8.21875 7.23177 8.0599 7.71094 7.74219 8.14844C7.42448 8.58594 7.00781 8.92188 6.49219 9.15625C7.13281 9.38542 7.60938 9.72917 7.92188 10.1875C8.23958 10.6458 8.39844 11.1875 8.39844 11.8125C8.39844 12.8229 8.02865 13.6328 7.28906 14.2422C6.55469 14.8516 5.58073 15.1562 4.36719 15.1562C3.23177 15.1562 2.30208 14.8568 1.57812 14.2578C0.859375 13.6589 0.5 12.8672 0.5 11.8828H2.75781C2.75781 12.3099 2.91667 12.6589 3.23438 12.9297C3.55729 13.2005 3.95312 13.3359 4.42188 13.3359C4.95833 13.3359 5.3776 13.1953 5.67969 12.9141C5.98698 12.6276 6.14062 12.25 6.14062 11.7812C6.14062 10.6458 5.51562 10.0781 4.26562 10.0781H3.07031V8.3125ZM16.6406 10.7188H17.9297V12.5391H16.6406V15H14.3828V12.5391H9.71875L9.61719 11.1172L14.3594 3.625H16.6406V10.7188ZM11.8672 10.7188H14.3828V6.70312L14.2344 6.96094L11.8672 10.7188ZM19.1172 5.8125C19.1172 5.11458 19.3438 4.54948 19.7969 4.11719C20.25 3.67969 20.8438 3.46094 21.5781 3.46094C22.3229 3.46094 22.9219 3.67708 23.375 4.10938C23.8281 4.53646 24.0547 5.11719 24.0547 5.85156V6.41406C24.0547 7.11719 23.8281 7.68229 23.375 8.10938C22.9219 8.53646 22.3281 8.75 21.5938 8.75C20.8542 8.75 20.2552 8.53646 19.7969 8.10938C19.3438 7.67708 19.1172 7.09635 19.1172 6.36719V5.8125ZM20.6172 6.41406C20.6172 6.72656 20.7057 6.97917 20.8828 7.17188C21.0651 7.35938 21.3021 7.45312 21.5938 7.45312C21.8854 7.45312 22.1172 7.35677 22.2891 7.16406C22.4609 6.97135 22.5469 6.71354 22.5469 6.39062V5.8125C22.5469 5.5 22.4609 5.2474 22.2891 5.05469C22.1172 4.86198 21.8802 4.76562 21.5781 4.76562C21.2917 4.76562 21.0599 4.86198 20.8828 5.05469C20.7057 5.24219 20.6172 5.50521 20.6172 5.84375V6.41406ZM24.5547 12.2109C24.5547 11.5078 24.7839 10.9427 25.2422 10.5156C25.7005 10.0833 26.2943 9.86719 27.0234 9.86719C27.763 9.86719 28.3594 10.0807 28.8125 10.5078C29.2708 10.9297 29.5 11.513 29.5 12.2578V12.8203C29.5 13.5182 29.276 14.0833 28.8281 14.5156C28.3802 14.9427 27.7839 15.1562 27.0391 15.1562C26.2891 15.1562 25.6875 14.9401 25.2344 14.5078C24.7812 14.0755 24.5547 13.5026 24.5547 12.7891V12.2109ZM26.0547 12.8203C26.0547 13.1068 26.1484 13.3516 26.3359 13.5547C26.5234 13.7578 26.7578 13.8594 27.0391 13.8594C27.6745 13.8594 27.9922 13.5078 27.9922 12.8047V12.2109C27.9922 11.8984 27.9036 11.6484 27.7266 11.4609C27.5495 11.2682 27.3151 11.1719 27.0234 11.1719C26.7318 11.1719 26.4974 11.2682 26.3203 11.4609C26.1432 11.6484 26.0547 11.9062 26.0547 12.2344V12.8203ZM22.0391 14.1484L20.9375 13.5547L26.4922 4.66406L27.5938 5.25781L22.0391 14.1484Z" transform="translate(36 64)" fill="white"/>
<path d="M6.25781 15H4V6.29688L1.30469 7.13281V5.29688L6.01562 3.60938H6.25781V15ZM15.4453 15H13.1875V6.29688L10.4922 7.13281V5.29688L15.2031 3.60938H15.4453V15ZM19.1172 5.8125C19.1172 5.11458 19.3438 4.54948 19.7969 4.11719C20.25 3.67969 20.8438 3.46094 21.5781 3.46094C22.3229 3.46094 22.9219 3.67708 23.375 4.10938C23.8281 4.53646 24.0547 5.11719 24.0547 5.85156V6.41406C24.0547 7.11719 23.8281 7.68229 23.375 8.10938C22.9219 8.53646 22.3281 8.75 21.5938 8.75C20.8542 8.75 20.2552 8.53646 19.7969 8.10938C19.3438 7.67708 19.1172 7.09635 19.1172 6.36719V5.8125ZM20.6172 6.41406C20.6172 6.72656 20.7057 6.97917 20.8828 7.17188C21.0651 7.35938 21.3021 7.45312 21.5938 7.45312C21.8854 7.45312 22.1172 7.35677 22.2891 7.16406C22.4609 6.97135 22.5469 6.71354 22.5469 6.39062V5.8125C22.5469 5.5 22.4609 5.2474 22.2891 5.05469C22.1172 4.86198 21.8802 4.76562 21.5781 4.76562C21.2917 4.76562 21.0599 4.86198 20.8828 5.05469C20.7057 5.24219 20.6172 5.50521 20.6172 5.84375V6.41406ZM24.5547 12.2109C24.5547 11.5078 24.7839 10.9427 25.2422 10.5156C25.7005 10.0833 26.2943 9.86719 27.0234 9.86719C27.763 9.86719 28.3594 10.0807 28.8125 10.5078C29.2708 10.9297 29.5 11.513 29.5 12.2578V12.8203C29.5 13.5182 29.276 14.0833 28.8281 14.5156C28.3802 14.9427 27.7839 15.1562 27.0391 15.1562C26.2891 15.1562 25.6875 14.9401 25.2344 14.5078C24.7812 14.0755 24.5547 13.5026 24.5547 12.7891V12.2109ZM26.0547 12.8203C26.0547 13.1068 26.1484 13.3516 26.3359 13.5547C26.5234 13.7578 26.7578 13.8594 27.0391 13.8594C27.6745 13.8594 27.9922 13.5078 27.9922 12.8047V12.2109C27.9922 11.8984 27.9036 11.6484 27.7266 11.4609C27.5495 11.2682 27.3151 11.1719 27.0234 11.1719C26.7318 11.1719 26.4974 11.2682 26.3203 11.4609C26.1432 11.6484 26.0547 11.9062 26.0547 12.2344V12.8203ZM22.0391 14.1484L20.9375 13.5547L26.4922 4.66406L27.5938 5.25781L22.0391 14.1484Z" transform="translate(120 35)" fill="white"/>
<path d="M8.1875 6.64844C8.1875 7.20052 8.04948 7.6901 7.77344 8.11719C7.4974 8.54427 7.11719 8.88542 6.63281 9.14062C7.1849 9.40625 7.6224 9.77344 7.94531 10.2422C8.26823 10.7057 8.42969 11.2526 8.42969 11.8828C8.42969 12.8932 8.08594 13.6927 7.39844 14.2812C6.71094 14.8646 5.77604 15.1562 4.59375 15.1562C3.41146 15.1562 2.47396 14.862 1.78125 14.2734C1.08854 13.6849 0.742188 12.888 0.742188 11.8828C0.742188 11.2526 0.903646 10.7031 1.22656 10.2344C1.54948 9.76562 1.98438 9.40104 2.53125 9.14062C2.04688 8.88542 1.66667 8.54427 1.39062 8.11719C1.11979 7.6901 0.984375 7.20052 0.984375 6.64844C0.984375 5.67969 1.30729 4.90885 1.95312 4.33594C2.59896 3.75781 3.47656 3.46875 4.58594 3.46875C5.6901 3.46875 6.5651 3.75521 7.21094 4.32812C7.86198 4.89583 8.1875 5.66927 8.1875 6.64844ZM6.16406 11.7188C6.16406 11.224 6.02083 10.8281 5.73438 10.5312C5.44792 10.2344 5.0625 10.0859 4.57812 10.0859C4.09896 10.0859 3.71615 10.2344 3.42969 10.5312C3.14323 10.8229 3 11.2188 3 11.7188C3 12.2031 3.14062 12.5938 3.42188 12.8906C3.70312 13.1875 4.09375 13.3359 4.59375 13.3359C5.08333 13.3359 5.46615 13.1927 5.74219 12.9062C6.02344 12.6198 6.16406 12.224 6.16406 11.7188ZM5.92969 6.75781C5.92969 6.3151 5.8125 5.96094 5.57812 5.69531C5.34375 5.42448 5.01302 5.28906 4.58594 5.28906C4.16406 5.28906 3.83594 5.41927 3.60156 5.67969C3.36719 5.9401 3.25 6.29948 3.25 6.75781C3.25 7.21094 3.36719 7.57552 3.60156 7.85156C3.83594 8.1276 4.16667 8.26562 4.59375 8.26562C5.02083 8.26562 5.34896 8.1276 5.57812 7.85156C5.8125 7.57552 5.92969 7.21094 5.92969 6.75781ZM9.92969 5.8125C9.92969 5.11458 10.1562 4.54948 10.6094 4.11719C11.0625 3.67969 11.6562 3.46094 12.3906 3.46094C13.1354 3.46094 13.7344 3.67708 14.1875 4.10938C14.6406 4.53646 14.8672 5.11719 14.8672 5.85156V6.41406C14.8672 7.11719 14.6406 7.68229 14.1875 8.10938C13.7344 8.53646 13.1406 8.75 12.4062 8.75C11.6667 8.75 11.0677 8.53646 10.6094 8.10938C10.1562 7.67708 9.92969 7.09635 9.92969 6.36719V5.8125ZM11.4297 6.41406C11.4297 6.72656 11.5182 6.97917 11.6953 7.17188C11.8776 7.35938 12.1146 7.45312 12.4062 7.45312C12.6979 7.45312 12.9297 7.35677 13.1016 7.16406C13.2734 6.97135 13.3594 6.71354 13.3594 6.39062V5.8125C13.3594 5.5 13.2734 5.2474 13.1016 5.05469C12.9297 4.86198 12.6927 4.76562 12.3906 4.76562C12.1042 4.76562 11.8724 4.86198 11.6953 5.05469C11.5182 5.24219 11.4297 5.50521 11.4297 5.84375V6.41406ZM15.3672 12.2109C15.3672 11.5078 15.5964 10.9427 16.0547 10.5156C16.513 10.0833 17.1068 9.86719 17.8359 9.86719C18.5755 9.86719 19.1719 10.0807 19.625 10.5078C20.0833 10.9297 20.3125 11.513 20.3125 12.2578V12.8203C20.3125 13.5182 20.0885 14.0833 19.6406 14.5156C19.1927 14.9427 18.5964 15.1562 17.8516 15.1562C17.1016 15.1562 16.5 14.9401 16.0469 14.5078C15.5938 14.0755 15.3672 13.5026 15.3672 12.7891V12.2109ZM16.8672 12.8203C16.8672 13.1068 16.9609 13.3516 17.1484 13.5547C17.3359 13.7578 17.5703 13.8594 17.8516 13.8594C18.487 13.8594 18.8047 13.5078 18.8047 12.8047V12.2109C18.8047 11.8984 18.7161 11.6484 18.5391 11.4609C18.362 11.2682 18.1276 11.1719 17.8359 11.1719C17.5443 11.1719 17.3099 11.2682 17.1328 11.4609C16.9557 11.6484 16.8672 11.9062 16.8672 12.2344V12.8203ZM12.8516 14.1484L11.75 13.5547L17.3047 4.66406L18.4062 5.25781L12.8516 14.1484Z" transform="translate(169 64)" fill="white"/>
<g filter="url(#filter0_d)">
<circle cx="40" cy="40" r="40" transform="translate(70 70)" fill="white"/>
</g>
</g>
<defs>
<filter id="filter0_d" x="46" y="54" width="128" height="128" filterUnits="userSpaceOnUse" color-interpolation-filters="sRGB">
<feFlood flood-opacity="0" result="BackgroundImageFix"/>
<feColorMatrix in="SourceAlpha" type="matrix" values="0 0 0 0 0 0 0 0 0 0 0 0 0 0 0 0 0 0 255 0"/>
<feOffset dy="8"/>
<feGaussianBlur stdDeviation="12"/>
<feColorMatrix type="matrix" values="0 0 0 0 0 0 0 0 0 0 0 0 0 0 0 0 0 0 0.15 0"/>
<feBlend mode="normal" in2="BackgroundImageFix" result="effect1_dropShadow"/>
<feBlend mode="normal" in="SourceGraphic" in2="effect1_dropShadow" result="shape"/>
</filter>
</defs>
</svg>
