<svg width="64" height="50" viewBox="0 0 64 50" fill="none" xmlns="http://www.w3.org/2000/svg">
<path d="M7.65191 0H0.927092C0.415828 0 0 0.420596 0 0.929381V20.3209C0 20.8297 0.415828 21.2435 0.927092 21.2435H7.65191C8.16318 21.2435 8.57901 20.8297 8.57901 20.3209V0.929381C8.58241 0.420596 8.16658 0 7.65191 0Z" transform="translate(0 28.7568)" fill="#C3BAB3"/>
<path d="M7.6485 0H0.923683C0.412419 0 0 0.420596 0 0.929381V20.3209C0 20.8297 0.412419 21.2435 0.923683 21.2435H7.6485C8.16658 21.2435 8.57901 20.8297 8.57901 20.3209V0.929381C8.57901 0.420596 8.16658 0 7.6485 0Z" transform="translate(55.4209 28.7568)" fill="#C3BAB3"/>
<path d="M7.65532 0H0.9305C0.419236 0 0 0.413811 0 0.925988V31.3988C0 31.9076 0.419236 32.3214 0.9305 32.3214H7.65532C8.17 32.3214 8.58582 31.9076 8.58582 31.3988V0.925988C8.58582 0.410419 8.17 0 7.65532 0Z" transform="translate(12.4778 17.6716)" fill="#C3BAB3"/>
<path d="M7.6485 0H0.923683C0.412419 0 0 0.413811 0 0.925988V31.3988C0 31.9076 0.412419 32.3214 0.923683 32.3214H7.6485C8.16659 32.3214 8.579 31.9076 8.579 31.3988V0.925988C8.58241 0.410419 8.16999 0 7.6485 0Z" transform="translate(40.9934 17.6716)" fill="#C3BAB3"/>
<path d="M7.65532 0H0.927093C0.415829 0 0 0.417201 0 0.922595V24.6455C0 25.1543 0.415829 25.5681 0.927093 25.5681H7.65532C8.1734 25.5681 8.58582 25.1543 8.58582 24.6455V0.922595C8.58582 0.417201 8.1734 0 7.65532 0Z" transform="translate(26.4629 24.4216)" fill="#C3BAB3"/>
<path d="M3.58225 16.7187C5.56255 16.7187 7.16451 15.1245 7.16451 13.1538C7.16451 12.8112 7.09975 12.489 7.00772 12.1769L14.5437 6.78041C15.0073 6.99749 15.5186 7.12638 16.0639 7.12638C17.1171 7.12638 18.051 6.66848 18.7088 5.94939L25.8222 10.0468C25.7813 10.2571 25.7541 10.4742 25.7541 10.6913C25.7541 12.6586 27.3594 14.2562 29.3363 14.2562C31.2416 14.2562 32.7856 12.7705 32.8947 10.9016L42.486 8.11003C43.137 8.99871 44.1834 9.58551 45.3764 9.58551C46.1671 9.58551 46.8863 9.32433 47.4794 8.89017L55.5403 14.3308C55.4721 14.6123 55.4142 14.9074 55.4142 15.2127C55.4142 17.1834 57.0195 18.7809 58.9964 18.7809C60.9733 18.7809 62.5855 17.1834 62.5855 15.2127C62.5855 13.242 60.9733 11.6478 58.9964 11.6478C58.2057 11.6478 57.4865 11.909 56.8934 12.3397L48.8393 6.9093C48.9075 6.62438 48.9586 6.33268 48.9586 6.02741C48.9586 4.05671 47.3601 2.46252 45.3764 2.46252C43.4711 2.46252 41.927 3.94817 41.8146 5.81711L32.2267 8.60525C31.5757 7.71318 30.5259 7.12977 29.3363 7.12977C28.4535 7.12977 27.6594 7.4554 27.0356 7.98114L19.6325 3.71074C19.6325 3.65986 19.6462 3.61577 19.6462 3.56828C19.6462 1.59759 18.0442 0 16.0639 0C14.0836 0 12.4817 1.59419 12.4817 3.56489C12.4817 4.10081 12.6112 4.60281 12.8225 5.06072L5.61368 10.2232C5.03765 9.82294 4.33892 9.5889 3.58225 9.5889C1.60196 9.5889 0 11.1865 0 13.1538C0 15.1245 1.60196 16.7187 3.58225 16.7187Z" transform="translate(0.708984)" fill="#C3BAB3"/>
</svg>
