<svg width="80" height="84" viewBox="0 0 80 84" fill="none" xmlns="http://www.w3.org/2000/svg">
<path d="M17.3909 0H0V26.3874H17.3909V0Z" transform="translate(0.00189209 57.6126)" fill="white"/>
<path d="M17.3909 0H0V35.1832H17.3909V0Z" transform="translate(26.9578 48.8168)" fill="white"/>
<path d="M17.3909 0H0V43.9791H17.3909V0Z" transform="translate(53.9136 40.0209)" fill="white"/>
<path d="M39.8401 1.55314L32.649 0.0314637C32.3798 -0.0259999 32.0999 -0.00444272 31.8425 0.0935944C31.585 0.191632 31.3605 0.362065 31.1956 0.584819C31.0307 0.807572 30.9321 1.07337 30.9115 1.35089C30.891 1.62841 30.9492 1.9061 31.0795 2.15125L32.6707 5.18581L0.784528 21.8231C0.495825 21.9736 0.265538 22.2179 0.130687 22.5168C-0.00416331 22.8157 -0.0357445 23.1518 0.0410205 23.471C0.117785 23.7902 0.298437 24.0741 0.553936 24.2769C0.809435 24.4798 1.12494 24.5898 1.44973 24.5894C1.68168 24.5899 1.91018 24.5325 2.11493 24.4222L34.0316 7.77178L35.4924 10.5557C35.6157 10.79 35.7999 10.986 36.0252 11.1224C36.2504 11.2588 36.5081 11.3304 36.7706 11.3297H36.8445C37.1199 11.3159 37.3856 11.223 37.6105 11.0617C37.8354 10.9004 38.0101 10.6776 38.1141 10.4193L40.8705 3.54099C40.9525 3.34204 40.9898 3.12716 40.9797 2.91186C40.9696 2.69657 40.9123 2.48622 40.8121 2.29603C40.7118 2.10584 40.5711 1.94054 40.4 1.81206C40.2289 1.68359 40.0317 1.59515 39.8227 1.55314H39.8401Z" transform="translate(0 25.947)" fill="white"/>
<path d="M3.9999 0.000381844H0V8.07054H4.09555C4.70308 8.06831 5.30213 7.92627 5.84736 7.65519C6.39258 7.3841 6.86968 6.99108 7.24252 6.50588C7.61536 6.02067 7.87417 5.45601 7.99935 4.85466C8.12452 4.25331 8.11278 3.63102 7.96502 3.03494C7.73199 2.15502 7.21553 1.37885 6.49737 0.82923C5.77921 0.279613 4.90036 -0.0120547 3.9999 0.000381844Z" transform="translate(60.3701 10.3127)" fill="white"/>
<path d="M17.3909 0C13.9513 0 10.589 1.03173 7.72904 2.96472C4.86912 4.89772 2.64008 7.64515 1.32381 10.8596C0.00753519 14.074 -0.336862 17.6111 0.334169 21.0236C1.0052 24.436 2.66152 27.5705 5.09368 30.0308C7.52584 32.491 10.6246 34.1665 13.9981 34.8452C17.3716 35.524 20.8683 35.1756 24.0461 33.8442C27.2239 32.5127 29.94 30.2579 31.8509 27.365C33.7618 24.4721 34.7818 21.0709 34.7818 17.5916C34.7818 15.2815 34.332 12.9939 33.458 10.8596C32.584 8.72529 31.303 6.786 29.6881 5.15247C28.0732 3.51893 26.1561 2.22314 24.0461 1.33908C21.9361 0.455021 19.6747 0 17.3909 0V0ZM25.3211 16.3866C24.5603 18.7131 21.843 20.5866 19.4343 20.5866H15.1518V22.7856H22.769V24.9845H15.1518V29.0262H12.978V24.9889H10.4345V22.7899H12.9736V20.591H10.4345V18.392H12.9736V8.10974H19.3691C20.359 8.10012 21.3368 8.32992 22.2212 8.77998C23.1055 9.23005 23.8707 9.88736 24.453 10.6971C25.0354 11.5069 25.418 12.4458 25.569 13.4354C25.72 14.4251 25.635 15.4369 25.3211 16.3866Z" transform="translate(45.2182)" fill="white"/>
</svg>
