<svg width="64" height="57" viewBox="0 0 64 57" fill="none" xmlns="http://www.w3.org/2000/svg">
<path d="M63.9661 16.0456C63.775 14.9944 38.4344 0.971854 30.5894 0.431913C22.0119 -0.158742 0 0.0280337 0 0.0280337L0.0181543 15.3657C1.38666 15.0229 7.51323 15.4712 9.56614 17.2752C12.0152 19.4275 14.6965 20.9827 17.6991 22.3251C20.46 23.5592 24.5754 25.9713 25.535 26.5157C31.2687 29.7696 31.9665 30.6176 34.8625 32.1451C35.2676 32.3589 35.6621 32.4605 36.0351 32.4709C36.0935 32.8067 36.1676 33.1319 36.2565 33.4416C35.6921 33.6415 35.3424 33.8311 35.3424 33.8311C35.0475 33.9797 34.8242 34.2409 34.7219 34.5556C33.7971 37.3972 33.7971 39.9317 34.7219 42.7737C34.8237 43.0888 35.0475 43.3498 35.3424 43.4983C36.0123 43.8361 36.613 44.0798 37.1771 44.2388V46.9135C37.1771 47.0782 37.2425 47.236 37.3587 47.3525L37.9238 47.9203L37.3587 48.4879C37.2427 48.6044 37.1771 48.7622 37.1771 48.9269V49.0784C37.1771 49.2431 37.2425 49.401 37.3587 49.5176L37.9238 50.0852L37.3587 50.6526C37.2427 50.7691 37.1771 50.9272 37.1771 51.092V51.2317C37.1771 51.3964 37.2425 51.5543 37.3587 51.6709L37.9238 52.2385L37.3587 52.8059C37.2427 52.9224 37.1771 53.0805 37.1771 53.2451V55.3851C37.1771 55.5491 37.2422 55.7067 37.3574 55.8233L38.3418 56.817C38.4582 56.9344 38.6158 57 38.7805 57C38.9449 57 39.1031 56.9344 39.2188 56.817L40.2036 55.8233C40.3186 55.707 40.3835 55.5494 40.3835 55.3851V44.2386C40.9483 44.0797 41.549 43.8359 42.2186 43.4981C42.5135 43.3497 42.7373 43.0886 42.8398 42.7736C43.7633 39.932 43.7633 37.3975 42.8398 34.5556C42.7373 34.2406 42.5135 33.9796 42.2189 33.8309C42.2189 33.8309 41.8705 33.6421 41.3079 33.4428C41.5645 32.55 41.6957 31.5263 41.6957 30.5064C41.6957 30.0927 41.6738 29.6788 41.6309 29.2727C43.3689 30.1885 45.1251 30.1014 45.1612 29.0336C45.1686 28.8092 45.2692 20.395 44.6668 16.7021C44.5095 15.7385 44.0936 14.4787 42.646 12.6489C43.3813 12.9662 44.0931 13.2651 44.8148 13.534C48.9923 15.0905 56.6596 19.1903 59.8594 19.3875C61.5501 19.492 64.3391 18.0998 63.9661 16.0456ZM34.7801 22.4805C32.3961 20.9038 30.3614 18.8151 29.4809 17.3096C28.3205 15.3249 31.6401 12.2428 33.9633 14.1325C35.8161 15.7717 37.2136 17.2475 37.5389 17.9946C38.003 20.9827 38.2629 24.4596 38.2694 24.5054C38.2865 24.6332 38.309 24.7571 38.3336 24.8798C38.0735 24.9457 37.8335 25.0684 37.6138 25.2391C36.9766 24.2717 36.0552 23.3239 34.7801 22.4805ZM41.0087 35.5251C41.0087 36.0304 40.0113 36.4401 38.7807 36.4401C37.5503 36.4401 36.5526 36.0304 36.5526 35.5251C36.5526 35.3347 36.6946 35.1577 36.9372 35.0112C37.4039 35.7361 38.0205 36.1909 38.7828 36.1909C39.5443 36.1909 40.1607 35.7366 40.6274 35.0129C40.8681 35.1592 41.0087 35.3352 41.0087 35.5251ZM38.7808 32.9827C38.5549 32.9827 38.3341 32.9955 38.1197 33.017C38.0017 32.6441 37.898 32.1874 37.8355 31.6453C38.6767 30.6937 39.0474 29.0314 38.539 27.2298C38.6354 27.0375 38.7267 26.9038 38.8028 26.8279C39.1073 27.0009 39.7935 28.2593 39.7935 30.5067C39.7935 31.5682 39.6395 32.4066 39.4459 33.0172C39.2302 32.9955 39.0081 32.9827 38.7808 32.9827Z" fill="#C3BAB3"/>
</svg>
