<svg width="62" height="63" viewBox="0 0 62 63" fill="none" xmlns="http://www.w3.org/2000/svg">
<path d="M20.0572 0C17.1458 0 18.1249 6.2158 18.1249 6.2158C18.1249 6.2158 11.9029 23.3575 5.95145 27.9261C4.67614 29.2645 3.87746 30.7444 3.37507 31.9541C3.25913 32.2501 3.15607 32.5332 3.0659 32.7906C2.66656 33.6014 1.81635 34.8497 0 35.9436L5.95145 61.7977C5.95145 61.7977 15.162 62.9945 24.3984 62.8015C28.0955 63.0975 32.0116 63.1232 35.129 62.454C45.718 60.2019 43.0643 52.8279 43.0643 52.8279C48.771 48.5425 45.5247 43.1889 45.5247 43.1889C50.6002 37.8997 45.6149 33.4598 45.6149 33.4598C45.6149 33.4598 48.3587 29.1872 44.8162 25.9571C40.3977 21.9162 28.4046 24.6058 28.4046 24.6058C27.5673 24.7474 26.6785 24.9276 25.7252 25.1592C25.7252 25.1592 21.5772 27.0896 25.7252 14.5164C29.8861 1.94324 22.9685 0 20.0572 0Z" transform="translate(14.1958)" fill="#C3BAB3"/>
<path d="M15.8705 23.6278L11.3619 2.22636C11.1042 1.00379 9.86756 0 8.61801 0H0.0128819L0 25.8413H14.0542C15.3166 25.8541 16.1282 24.8503 15.8705 23.6278Z" transform="translate(0 36.304)" fill="#C3BAB3"/>
</svg>
