<svg width="64" height="57" viewBox="0 0 64 57" fill="none" xmlns="http://www.w3.org/2000/svg">
<path d="M12.5826 36.5849C12.9884 36.9438 13.495 37.1237 14.0021 37.1237C14.5091 37.1237 15.0159 36.9438 15.4215 36.5849C15.9354 36.1295 28.0041 25.3098 28.0041 14.0886C28.0041 6.32018 21.723 0 14.0023 0C6.28129 0 1.15421e-08 6.32018 1.15421e-08 14.0886C-0.000430967 25.3098 12.0687 36.1295 12.5826 36.5849ZM14.0021 10.4075C16.0065 10.4075 17.632 12.0552 17.632 14.0886C17.632 16.1219 16.0065 17.7698 14.0021 17.7698C11.9969 17.7698 10.3717 16.1217 10.3717 14.0886C10.3717 12.0552 11.9969 10.4075 14.0021 10.4075Z" transform="translate(17.9983)" fill="#C3BAB3"/>
<path d="M54.1218 7.28447L52.4998 1.56747C52.2365 0.639603 51.3937 0 50.4348 0H38.8589C38.4405 0.625733 37.9989 1.25385 37.532 1.88544C34.2873 6.27012 30.9888 9.23601 30.6232 9.56025C29.6815 10.3943 28.4719 10.8536 27.2167 10.8536C25.9623 10.8536 24.7528 10.3947 23.8098 9.55982C23.4446 9.23601 20.1456 6.26968 16.9012 1.88544C16.4343 1.25385 15.9927 0.625516 15.5743 0H3.99818C3.03926 0 2.19648 0.639603 1.93315 1.56747L0 8.38096L43.2118 16.3419L54.1218 7.28447Z" transform="translate(4.78345 29.2942)" fill="#C3BAB3"/>
<path d="M24.7041 14.6075L20.5602 0L0 17.3606H22.6393C23.3131 17.3606 23.9477 17.0426 24.3535 16.5016C24.7593 15.9604 24.8888 15.259 24.7041 14.6075Z" transform="translate(39.2136 39.6394)" fill="#C3BAB3"/>
<path d="M10.5142 1.20855L3.95474 0L0.082396 13.6502C-0.102278 14.3017 0.0272308 15.0031 0.433212 15.5441C0.838978 16.085 1.47359 16.403 2.14743 16.403H10.5142V1.20855Z" transform="translate(0 40.5967)" fill="#C3BAB3"/>
<path d="M0 0V14.6402H21.016L31.4853 5.80044L0 0Z" transform="translate(13.521 42.3596)" fill="#C3BAB3"/>
</svg>
