<svg width="112" height="100" viewBox="0 0 112 100" fill="none" xmlns="http://www.w3.org/2000/svg">
<path d="M0.448721 0.0136341V3.5884L0.421526 4.16432L0.686679 3.68382L3.00167 0.0136341H3.51158V4.78454H3.05606V1.19614L3.08325 0.620221H3.06286L2.8249 1.06664L0.50991 4.77091H0V0L0.448721 0.0136341Z" transform="translate(0.397736 84.7126)" fill="#660035"/>
<path d="M0.448721 0V2.0992H2.91329V0H3.36201V4.77091H2.91329V2.50132H0.448721V4.77091H0V0H0.448721Z" transform="translate(5.49341 84.7263)" fill="#660035"/>
<path d="M1.26798 0.0136341C2.2572 0.0136341 2.65833 0.565694 2.65833 1.20977C2.66629 1.45648 2.58865 1.69833 2.43863 1.89408C2.28862 2.08983 2.07552 2.22736 1.83568 2.28322V2.30367C2.10659 2.34227 2.35448 2.47765 2.53374 2.6849C2.713 2.89216 2.81157 3.15734 2.8113 3.43165C2.8113 4.75728 1.45154 4.77091 1.24418 4.77091H0V0L1.26798 0.0136341ZM0.448721 2.11965H1.20679C1.33158 2.13345 1.45787 2.12012 1.57706 2.08058C1.69625 2.04104 1.80553 1.97621 1.89748 1.89051C1.98942 1.80481 2.06186 1.70025 2.10985 1.58395C2.15785 1.46765 2.18028 1.34235 2.17562 1.21658C2.17562 0.640667 1.74389 0.402122 1.22038 0.402122H0.448721V2.11965ZM0.448721 4.38243H1.16599C1.56712 4.38243 2.31159 4.30745 2.31159 3.43846C2.31159 2.8455 1.85267 2.50813 1.21359 2.50813H0.448721V4.38243Z" transform="translate(10.4464 84.7126)" fill="#660035"/>
<path d="M2.30479 0.00681704V0.395305H0.448721V2.0992H2.21641V2.50813H0.448721V4.38242H2.43397V4.77091H0V0L2.30479 0.00681704Z" transform="translate(14.5936 84.7195)" fill="#660035"/>
<path d="M3.56597 4.6831C3.18227 4.8051 2.78212 4.86717 2.37958 4.86712C0.730871 4.86712 0 3.71188 0 2.50893C0 1.24464 0.67988 0.000796553 2.42717 0.000796553C2.79926 -0.00789153 3.1696 0.0545597 3.51838 0.184815L3.47758 0.593754C3.13017 0.456521 2.75979 0.387118 2.38638 0.389285C1.19319 0.389285 0.482714 1.31961 0.482714 2.51575C0.465742 2.76984 0.501563 3.02469 0.587909 3.26419C0.674256 3.50368 0.809248 3.72261 0.984347 3.90711C1.15945 4.09161 1.37084 4.23767 1.60515 4.33605C1.83946 4.43443 2.09159 4.48298 2.34558 4.47864C2.76276 4.47999 3.17655 4.40372 3.56597 4.25372V4.6831Z" transform="translate(17.976 84.671)" fill="#660035"/>
<path d="M3.29402 0V0.388488H1.87307V4.75727H1.42435V0.388488H0V0H3.29402Z" transform="translate(21.9941 84.7263)" fill="#660035"/>
<path d="M0.448721 0.0136341V3.5884L0.421527 4.16432H0.441923L0.703676 3.68382L2.99487 0.0136341H3.50478V4.78454H3.05606V1.19614L3.08325 0.620221H3.06286L2.8249 1.06664L0.50991 4.77091H0V0L0.448721 0.0136341Z" transform="translate(26.3046 84.7126)" fill="#660035"/>
<path d="M0.448721 0.00341112V4.3722H2.96767V0.00341112H3.41639V4.3722H3.9773V5.79325H3.53198V4.77091H0V0L0.448721 0.00341112Z" transform="translate(31.4002 84.7229)" fill="#660035"/>
<path d="M0.448721 0.0136341V3.5884L0.421527 4.16432H0.441923L0.703676 3.68382L2.99487 0.0136341H3.50478V4.78454H3.05606V1.19614L3.08325 0.620221H3.06286L2.8249 1.06664L0.50991 4.77091H0V0L0.448721 0.0136341Z" transform="translate(36.5639 84.7126)" fill="#660035"/>
<path d="M2.14853 0C3.60007 0 4.29695 1.16206 4.29695 2.43998C4.29695 4.01097 3.35532 4.86633 2.14853 4.86633C0.941743 4.86633 0.000109772 4.01097 0.000109772 2.43998C-0.0100884 1.16206 0.690188 0 2.14853 0ZM2.14853 4.47784C2.97798 4.47784 3.81764 3.86784 3.81764 2.43316C3.81764 0.998483 2.97798 0.388488 2.14853 0.388488C1.31908 0.388488 0.482824 1.01211 0.482824 2.43316C0.482824 3.85421 1.31228 4.47784 2.14853 4.47784Z" transform="translate(41.3638 84.6718)" fill="#660035"/>
<path d="M0.448718 0V2.0992H2.91328V0H3.3722V4.77091H2.92348V2.50132H0.448718V4.77091H0V0H0.448718Z" transform="translate(46.9389 84.7263)" fill="#660035"/>
<path d="M0.448723 0V2.0992H2.91669V0H3.36201V4.77091H2.91669V2.50132H0.448723V4.77091H0V0H0.448723Z" transform="translate(51.902 84.7263)" fill="#660035"/>
<path d="M2.14842 0C3.59656 0 4.29344 1.16206 4.29344 2.43998C4.29344 4.01097 3.3552 4.86633 2.14842 4.86633C0.941631 4.86633 0 4.01097 0 2.43998C0 1.16206 0.696874 0 2.14842 0ZM2.14842 4.47784C2.97447 4.47784 3.81413 3.86784 3.81413 2.43316C3.81413 0.998483 2.97447 0.388488 2.14842 0.388488C1.32236 0.388488 0.479317 1.01211 0.479317 2.43316C0.479317 3.85421 1.31896 4.47784 2.14842 4.47784Z" transform="translate(56.5422 84.6718)" fill="#660035"/>
<path d="M1.49234 0V0.361225H0V0H1.49234Z" transform="translate(62.124 87.49)" fill="#660035"/>
<path d="M2.70932 0V0.562284H2.92008C3.46463 0.562284 3.98689 0.77914 4.37194 1.16515C4.757 1.55115 4.97332 2.0747 4.97332 2.62059C4.97332 3.16649 4.757 3.69003 4.37194 4.07603C3.98689 4.46204 3.46463 4.6789 2.92008 4.6789H2.70932V5.25481H2.264V4.6789H2.05324C1.50869 4.6789 0.986435 4.46204 0.601379 4.07603C0.216322 3.69003 0 3.16649 0 2.62059C0 2.0747 0.216322 1.55115 0.601379 1.16515C0.986435 0.77914 1.50869 0.562284 2.05324 0.562284H2.264V0H2.70932ZM2.264 0.950772H2.05324C1.62404 0.970204 1.21884 1.1548 0.921976 1.46615C0.62511 1.77749 0.45944 2.1916 0.45944 2.62229C0.45944 3.05299 0.62511 3.4671 0.921976 3.77844C1.21884 4.08979 1.62404 4.27438 2.05324 4.29381H2.264V0.950772ZM2.70932 4.29381H2.92008C3.34928 4.27438 3.75448 4.08979 4.05135 3.77844C4.34821 3.4671 4.51388 3.05299 4.51388 2.62229C4.51388 2.1916 4.34821 1.77749 4.05135 1.46615C3.75448 1.1548 3.34928 0.970204 2.92008 0.950772H2.70932V4.29381Z" transform="translate(64.9387 84.4434)" fill="#660035"/>
<path d="M0.458921 0.0136341V3.5884L0.431725 4.16432H0.452121L0.717273 3.68382L3.00847 0.0136341H3.51498V4.78454H3.06966V1.19614L3.09685 0.620221H3.07646L2.8385 1.06664L0.506512 4.77091H0V0L0.458921 0.0136341Z" transform="translate(71.2208 84.7126)" fill="#660035"/>
<path d="M0.445326 0V2.0992H2.91329V0H3.35861V4.77091H2.91329V2.50132H0.445326V4.77091H0V0H0.445326Z" transform="translate(76.3301 84.7263)" fill="#660035"/>
<path d="M2.46456 0L4.34783 4.77091H3.86511L3.34501 3.45891H0.999424L0.479317 4.77091H0L1.88327 0H2.46456ZM2.16542 0.443014L2.00905 0.889434L1.149 3.05679H3.18864L2.32519 0.889434L2.16882 0.443014H2.16542Z" transform="translate(80.7085 84.7263)" fill="#660035"/>
<path d="M0.448723 0V2.0992H2.91328V0H3.36201V4.77091H2.91328V2.50132H0.448723V4.77091H0V0H0.448723Z" transform="translate(86.0728 84.7263)" fill="#660035"/>
<path d="M3.56597 4.6832C3.18239 4.80573 2.78216 4.86782 2.37958 4.86723C0.73427 4.86723 0 3.71199 0 2.50904C0 1.24474 0.679881 0.000900518 2.42377 0.000900518C2.79591 -0.00837621 3.16635 0.0540937 3.51498 0.184919L3.47759 0.593858C3.1301 0.456867 2.75977 0.387473 2.38638 0.389389C1.1932 0.389389 0.479317 1.31972 0.479317 2.51585C0.462344 2.76994 0.498164 3.0248 0.58451 3.26429C0.670857 3.50379 0.805849 3.72272 0.980948 3.90721C1.15605 4.09171 1.36745 4.23778 1.60176 4.33615C1.83607 4.43453 2.0882 4.48309 2.34219 4.47874C2.75942 4.48073 3.17333 4.40444 3.56257 4.25383L3.56597 4.6832Z" transform="translate(90.7198 84.6708)" fill="#660035"/>
<path d="M2.14842 0C3.59657 0 4.29685 1.16206 4.29685 2.43998C4.29685 4.01097 3.35521 4.86633 2.14842 4.86633C0.941636 4.86633 0 4.01097 0 2.43998C0 1.16206 0.696879 0 2.14842 0ZM2.14842 4.47784C2.97448 4.47784 3.81413 3.86784 3.81413 2.43316C3.81413 0.998483 2.97448 0.388488 2.14842 0.388488C1.32237 0.388488 0.482719 1.01211 0.482719 2.43316C0.482719 3.85421 1.32237 4.47784 2.14842 4.47784Z" transform="translate(94.9996 84.6718)" fill="#660035"/>
<path d="M1.26797 0.0136341C2.25719 0.0136341 2.65833 0.565694 2.65833 1.20977C2.66646 1.45602 2.5893 1.69749 2.43996 1.89318C2.29061 2.08886 2.0783 2.22668 1.83908 2.28322V2.30367C2.10627 2.34672 2.34933 2.48402 2.52446 2.69083C2.6996 2.89764 2.7953 3.16036 2.79431 3.43165C2.79431 4.75728 1.43454 4.77091 1.22718 4.77091H0V0L1.26797 0.0136341ZM0.448723 2.11965H1.20678C1.33169 2.13403 1.45822 2.12112 1.57767 2.0818C1.69712 2.04247 1.80664 1.97766 1.89872 1.89184C1.99079 1.80602 2.06321 1.70122 2.11101 1.58465C2.15881 1.46808 2.18086 1.34251 2.17561 1.21658C2.17561 0.640667 1.74389 0.402122 1.22038 0.402122H0.448723V2.11965ZM0.448723 4.38243H1.16599C1.56712 4.38243 2.31159 4.30745 2.31159 3.43846C2.31159 2.8455 1.85267 2.50813 1.21359 2.50813H0.448723V4.38243Z" transform="translate(100.581 84.7126)" fill="#660035"/>
<path d="M2.46797 0L4.35124 4.77091H3.87192L3.34841 3.45891H1.00283L0.482719 4.77091H0L1.88667 0H2.46797ZM2.16882 0.443014L2.01584 0.889434L1.1524 3.05679H3.19204L2.33199 0.889434L2.17561 0.443014H2.16882Z" transform="translate(103.977 84.7263)" fill="#660035"/>
<path d="M3.01187 4.74705H2.56315V2.70238H1.60792L0.550711 4.74705H0L1.1626 2.6274C0.886772 2.55241 0.643753 2.38737 0.471982 2.1584C0.300211 1.92942 0.209491 1.64958 0.214164 1.36312C0.214164 0.657704 0.683283 0 1.6929 0H3.02207L3.01187 4.74705ZM2.56315 0.378265H1.64192C1.38406 0.378265 1.13677 0.48095 0.954442 0.663728C0.772114 0.846506 0.669682 1.09441 0.669682 1.35289C0.669682 1.61138 0.772114 1.85928 0.954442 2.04206C1.13677 2.22484 1.38406 2.32752 1.64192 2.32752H2.56315V0.378265Z" transform="translate(108.978 84.7365)" fill="#660035"/>
<path d="M0.574498 0V2.82505L0.781862 2.60355L3.3892 0H4.12007L1.1558 2.89321L4.45321 6.11698H3.65095L0.730871 3.18969L0.584697 3.02271V6.08972H0V0H0.574498Z" transform="translate(0.156372 93.8115)" fill="#660035"/>
<path d="M2.76371 0C4.62998 0 5.52742 1.49262 5.52742 3.13517C5.52742 5.15599 4.31724 6.25671 2.76371 6.25671C1.21019 6.25671 0 5.15599 0 3.13517C0 1.49262 0.897442 0 2.76371 0ZM2.76371 5.75917C3.82772 5.75917 4.90873 4.97197 4.90873 3.13517C4.90873 1.29837 3.82772 0.497535 2.76371 0.497535C1.6997 0.497535 0.618692 1.30178 0.618692 3.13517C0.618692 4.96856 1.6997 5.75235 2.76371 5.75235V5.75917Z" transform="translate(13.8253 93.7433)" fill="#660035"/>
<path d="M3.22603 5.56833L3.47759 4.75386L5.51723 0H6.42486V6.11698H5.83337V1.38015V0.552061L5.53762 1.35629L3.51498 6.1272H2.90989L0.870248 1.35629L0.574499 0.552061H0.540506V1.38015V6.11698H0V0H0.904241L2.94388 4.75386L3.19544 5.56833H3.22603Z" transform="translate(29.8603 93.8115)" fill="#660035"/>
<path d="M4.33084 0V6.11698H3.75634V0.497535H0.574499V6.11698H0V0H4.33084Z" transform="translate(47.1769 93.8115)" fill="#660035"/>
<path d="M3.17504 0L5.59881 6.11698H4.98012L4.30024 4.43353H1.29177L0.611893 6.11698H0L2.42377 0H3.17504ZM2.79091 0.572507L2.59035 1.14842L1.48214 3.936H4.11667L3.00847 1.14842L2.80791 0.572507H2.79091Z" transform="translate(61.6651 93.8115)" fill="#660035"/>
<path d="M0.574499 0V2.70238H3.74954V0H4.32404V6.11698H3.74954V3.19991H0.574499V6.11698H0V0H0.574499Z" transform="translate(77.4213 93.8115)" fill="#660035"/>
<path d="M0.574499 0V4.59711L0.540503 5.34H0.567704L0.907644 4.71979L3.85492 0H4.50761V6.11698H3.93311V1.51987L3.9671 0.776976H3.9399L3.63396 1.35629L0.652689 6.1272H0V0H0.574499Z" transform="translate(92.6438 93.8115)" fill="#660035"/>
<path d="M3.87192 6.11698H3.29742V3.50661H2.06684L0.707081 6.11698H0L1.48214 3.39075C1.12733 3.2945 0.814655 3.0824 0.593619 2.78799C0.372582 2.49357 0.255808 2.13367 0.26176 1.76523C0.26176 0.855353 0.863453 0 2.16202 0H3.86172L3.87192 6.11698ZM3.29742 0.497535H2.11103C1.77925 0.497535 1.46106 0.62966 1.22645 0.864844C0.991848 1.10003 0.860048 1.419 0.860048 1.7516C0.860048 2.0842 0.991848 2.40318 1.22645 2.63837C1.46106 2.87355 1.77925 3.00567 2.11103 3.00567H3.29742V0.497535Z" transform="translate(107.577 93.8115)" fill="#660035"/>
<path fill-rule="evenodd" clip-rule="evenodd" d="M56.277 17.8347C58.1515 18.3274 59.9294 19.1339 61.5359 20.2202V0.0426512C58.9728 1.16381 56.4062 1.16381 54.5672 1.16381C52.7927 1.16381 50.6884 0.369799 44.3112 0.0426512C42.4246 -0.0533468 40.5333 0.0127787 38.658 0.240303C33.4603 0.898007 28.0212 2.54397 24.5879 4.7863C21.2812 6.54641 18.3192 8.89117 15.8446 11.7075C23.7346 14.5394 31.3595 17.6371 38.658 21.0006C46.5446 24.6231 54.1082 28.4466 61.5359 32.3996V28.4466C55.0261 24.756 49.2403 21.5901 41.4795 18.2232C43.0534 17.4326 46.6703 16.9044 49.4307 16.9044C51.7439 16.908 54.0463 17.2208 56.277 17.8347ZM38.658 28.7737C46.5446 32.3349 54.1082 36.155 61.5359 40.1762V36.2879C54.1082 32.2667 46.5446 28.45 38.658 24.8855C30.6354 21.1948 22.2865 17.77 13.6078 14.737C12.9701 15.7938 12.4209 16.9017 11.9659 18.0494C21.2224 21.263 30.1119 24.8207 38.658 28.7737ZM24.4587 48.2186C28.7963 50.5223 33.7934 51.9058 38.658 52.6317C41.7283 53.0739 44.8263 53.2948 47.9281 53.2928C49.2028 53.2873 50.4757 53.1985 51.7389 53.027C52.9366 52.8411 54.1445 52.7273 55.3558 52.6862C57.432 52.6437 59.506 52.8438 61.5359 53.2826V51.698C54.1082 47.6802 46.5446 43.86 38.658 40.2989C29.6496 36.2095 20.3012 32.461 10.443 29.0941C11.3642 38.002 17.0922 44.3951 24.4587 48.2186ZM0 6.50042V10.3887C3.55237 11.377 7.03676 12.4947 10.4532 13.684C11.507 14.0248 12.5574 14.4099 13.6078 14.737C14.279 13.6741 15.0266 12.6616 15.8446 11.7075C14.0837 11.0464 12.2276 10.3887 10.4532 9.79575C7.03676 8.67459 3.54557 7.55342 0 6.50042ZM0 14.2122V18.1005C3.55237 19.1535 7.03676 20.21 10.4532 21.3925C10.6042 21.447 10.7586 21.4914 10.9155 21.5254C11.1666 20.3389 11.518 19.1761 11.9659 18.0494C11.4486 17.9147 10.9428 17.7392 10.4532 17.5246C7.03676 16.383 3.54557 15.2653 0 14.2122ZM10.3886 25.2058L10.4532 25.2739C20.0516 28.4982 29.4702 32.2374 38.6682 36.4754C46.5548 40.0331 54.1184 43.8566 61.5461 47.8744V43.9895C54.1184 39.9683 46.5548 36.1516 38.6682 32.5871C29.6125 28.4255 20.3494 24.7334 10.9155 21.5254C10.6606 22.5403 10.5057 23.5778 10.4532 24.6231C10.4009 24.8126 10.3791 25.0093 10.3886 25.2058ZM0 25.809C3.55237 26.8654 7.03676 27.9865 10.4532 29.1043V28.6442C10.3886 27.9865 10.324 27.3254 10.324 26.6643C10.3113 26.1772 10.3329 25.6898 10.3886 25.2058C6.96877 24.0983 3.54557 22.9771 0 21.9888V25.809Z" transform="translate(15.1511)" fill="#660035"/>
<path fill-rule="evenodd" clip-rule="evenodd" d="M7.15913 4.68912L14.5596 1.65959V1.41764C14.5596 0.978032 14.3659 0.245361 13.8797 0H21.7222C21.287 0.245361 21.0423 0.978032 21.0423 1.41764V9.52137C21.0423 9.96098 21.287 10.6936 21.7222 10.9356H13.8797C14.3659 10.6936 14.5596 9.96098 14.5596 9.52137V5.66375L7.15913 8.59786V9.52478C7.15913 9.96438 7.40389 10.6971 7.83901 10.939H0C0.438522 10.6971 0.67988 9.96438 0.67988 9.52478V1.41764C0.67988 0.978032 0.435123 0.245361 0 0H7.84241C7.40389 0.245361 7.16253 0.978032 7.16253 1.41764L7.15913 4.68912Z" transform="translate(64.2826 68.4064)" fill="#660035"/>
<path fill-rule="evenodd" clip-rule="evenodd" d="M15.2939 0H8.37612L1.16939 10.1075C0.839261 10.4597 0.441495 10.7414 0 10.9356H7.20673C7.13618 10.8564 7.08259 10.7635 7.04927 10.6627C7.01594 10.5618 7.00358 10.4552 7.01296 10.3495C7.07172 9.99177 7.2229 9.65574 7.45148 9.37483L10.4226 4.88337H10.5211L13.533 9.37483C13.5806 9.42254 13.6316 9.56908 13.7268 9.71561C13.8257 9.83449 13.9081 9.96633 13.9715 10.1075C14.0058 10.1834 14.0221 10.2662 14.0191 10.3495C14.0346 10.4591 14.0081 10.5706 13.9451 10.6616C13.8821 10.7526 13.7871 10.8164 13.6792 10.8402V10.9356H22.4462C22.1378 10.7901 21.8572 10.5917 21.6168 10.3495C21.3515 10.0583 21.1073 9.7485 20.8859 9.42254L15.1885 1.56418C15.0337 1.36629 14.9329 1.13139 14.8962 0.882617C14.8928 0.684965 14.8554 0.146535 15.2939 0Z" transform="translate(40.5174 68.4064)" fill="#660035"/>
<path fill-rule="evenodd" clip-rule="evenodd" d="M20.9777 7.90949L16.997 1.80613C16.8508 1.56418 16.6571 1.31882 16.6571 1.17228C16.6571 1.02575 16.4599 0.149943 16.9018 0H7.15914L2.54955 7.90949H0V12.4521C0.584697 12.2067 1.90367 11.2287 2.8759 11.2287H20.6514C21.6236 11.2287 22.8406 12.2067 23.4253 12.4521V7.90949H20.9777ZM9.25317 3.17266H11.3982L14.1347 7.90949H6.94158L9.25317 3.17266Z" transform="translate(88.2416 68.4132)" fill="#660035"/>
<path fill-rule="evenodd" clip-rule="evenodd" d="M20.9913 3.76014C20.3573 2.95165 19.5604 2.28628 18.6525 1.80748C17.5778 1.18628 16.4105 0.742154 15.1953 0.492071C13.7928 0.14818 12.3525 -0.0167 10.9087 0.00134844C9.48169 -0.0167897 8.05826 0.148123 6.67302 0.492071C5.43959 0.734754 4.25438 1.17915 3.16484 1.80748C2.25937 2.28845 1.46396 2.9535 0.829454 3.76014C0.306528 4.43074 0.0153948 5.25367 0 6.1047C0 7.17816 0.489513 8.2039 1.46174 9.13082C2.57968 10.1844 3.93295 10.9544 5.40844 11.3766C7.18164 11.964 9.04152 12.2452 10.9087 12.2081C12.3526 12.2291 13.7933 12.0642 15.1953 11.7173C16.4227 11.4573 17.6041 11.0138 18.7001 10.4019C19.5841 9.90789 20.3626 9.24442 20.9913 8.44926C21.4982 7.77021 21.7864 6.95228 21.8173 6.1047C21.8017 5.25428 21.5119 4.43177 20.9913 3.76014ZM14.903 7.50871C14.4223 7.96595 13.8395 8.3013 13.2033 8.48675C11.7218 9.00461 10.1091 9.00461 8.62768 8.48675C7.9912 8.30179 7.4083 7.96638 6.92798 7.50871C6.55391 7.13359 6.34377 6.62489 6.34377 6.09448C6.34377 5.56406 6.55391 5.05537 6.92798 4.68024C7.40684 4.22062 7.99025 3.88492 8.62768 3.70221C9.36526 3.45846 10.1391 3.3432 10.9155 3.36143C11.6919 3.3432 12.4657 3.45846 13.2033 3.70221C13.8407 3.88492 14.4241 4.22062 14.903 4.68024C15.1018 4.85799 15.261 5.07587 15.3699 5.3196C15.4789 5.56333 15.5352 5.82739 15.5352 6.09448C15.5352 6.36156 15.4789 6.62563 15.3699 6.86936C15.261 7.11309 15.1018 7.33097 14.903 7.50871Z" transform="translate(19.1386 67.7712)" fill="#660035"/>
<path fill-rule="evenodd" clip-rule="evenodd" d="M16.7046 7.47109V12.2079C16.1675 12.1568 15.4877 12.1091 14.7092 12.1091C14.3188 12.1048 13.9285 12.1207 13.5398 12.1568C13.1183 12.1957 12.6951 12.2127 12.2718 12.2079C10.1804 12.2496 8.09491 11.9691 6.08832 11.3764C4.18806 10.8414 2.72632 10.1087 1.6691 9.13068C0.537105 8.21058 0 7.18825 0 6.10457C0.0311528 5.23993 0.357571 4.41225 0.924637 3.76001C1.67401 2.95197 2.56607 2.28994 3.55577 1.80734C4.78325 1.18041 6.09577 0.737231 7.45148 0.491935C9.03498 0.148672 10.6518 -0.0159266 12.2718 0.00121258C12.6951 -0.00445018 13.1184 0.0126111 13.5398 0.0523274C14.0735 0.100036 14.4644 0.100036 14.7092 0.100036C15.4877 0.100036 16.1675 0.0523295 16.7046 0.00121258V4.63922C16.059 4.31964 15.3728 4.09032 14.665 3.95766C13.8687 3.77862 13.0538 3.69624 12.2378 3.7123C11.3656 3.69503 10.4957 3.80992 9.65769 4.05308C9.00842 4.19325 8.40503 4.49569 7.9036 4.93229C7.70909 5.07434 7.5476 5.25695 7.43023 5.46755C7.31286 5.67816 7.24241 5.91176 7.22372 6.15228C7.27411 6.61147 7.5024 7.03245 7.85941 7.32455C8.39142 7.74169 9.00541 8.04132 9.66109 8.20376C10.5057 8.4083 11.3724 8.50674 12.2412 8.49684C13.0754 8.49266 13.9073 8.41052 14.7262 8.25147C15.4222 8.09621 16.0897 7.83291 16.7046 7.47109Z" transform="translate(0 67.7713)" fill="#660035"/>
</svg>
