<svg width="68" height="59" viewBox="0 0 68 59" fill="none" xmlns="http://www.w3.org/2000/svg">
<path fill-rule="evenodd" clip-rule="evenodd" d="M61.9852 19.6303C64.0486 20.1673 66.0062 21.0506 67.775 22.2427V0.0464116C64.954 1.28215 62.1259 1.28215 60.1021 1.28215C58.147 1.28215 55.831 0.411351 48.8039 0.0464116C46.726 -0.0587968 44.6429 0.0149437 42.5776 0.26682C36.8563 0.989472 30.8465 2.7961 27.066 5.26757C23.4244 7.20594 20.1617 9.78614 17.4343 12.8843C26.1389 16.0026 34.5332 19.4135 42.5776 23.1135C51.2677 27.088 59.5935 31.3083 67.775 35.6587V31.3228C60.6072 27.2615 54.2366 23.7783 45.6908 20.0783C47.4295 19.2111 51.412 18.633 54.453 18.633C56.9977 18.6344 59.5307 18.9759 61.9852 19.6483V19.6303ZM42.5776 31.6697C51.2677 35.5864 59.5935 39.7923 67.775 44.2185V39.9368C59.5935 35.5142 51.2677 31.3083 42.5776 27.3916C33.7432 23.3303 24.5408 19.558 14.9886 16.223C14.288 17.375 13.6847 18.5837 13.1849 19.8362C23.3937 23.3917 33.1696 27.3085 42.5848 31.6588L42.5776 31.6697ZM26.9361 53.0674C31.7159 55.5967 37.2171 57.1287 42.5776 57.9272C45.959 58.4119 49.3706 58.6534 52.7864 58.6499C54.1909 58.6435 55.5935 58.5458 56.9854 58.3572C58.2998 58.158 59.6248 58.0373 60.9535 57.9959C63.2389 57.9491 65.5221 58.1686 67.757 58.6499V56.9083C59.5755 52.482 51.2497 48.2762 42.5596 44.3594C32.6394 39.8645 22.3584 35.7273 11.493 32.0274C12.5067 41.8193 18.8088 48.8543 26.9181 53.0638L26.9361 53.0674ZM1.65132e-07 7.15731V11.4354C3.91037 12.5194 7.7486 13.7551 11.5111 15.0487C12.669 15.41 13.8306 15.8436 14.9886 16.2085C15.7264 15.0371 16.5486 13.9213 17.4488 12.8699C15.4936 12.1472 13.4807 11.4246 11.5111 10.767C7.7486 9.53483 3.91037 8.30271 1.65132e-07 7.15369V7.15731ZM1.65132e-07 15.6376V19.9193C3.91037 21.0828 7.7486 22.2427 11.5111 23.5326C11.6779 23.5898 11.8477 23.6381 12.0197 23.6771C12.2962 22.3745 12.6837 21.098 13.1777 19.8615C12.608 19.7126 12.0507 19.5193 11.5111 19.2834C7.7486 18.0477 3.91037 16.8155 1.65132e-07 15.6701V15.6376ZM11.4461 27.7529L11.5183 27.8251C22.0866 31.3762 32.457 35.4928 42.5848 40.1572C51.275 44.074 59.6007 48.2798 67.7822 52.7024V48.4243C59.6007 44.0017 51.275 39.7923 42.5848 35.8791C32.6122 31.2935 22.4103 27.2256 12.0197 23.6916C11.7386 24.8041 11.5682 25.9418 11.5111 27.088C11.4516 27.2994 11.4272 27.5191 11.4389 27.7384L11.4461 27.7529ZM1.65132e-07 28.4069C3.91037 29.5667 7.7486 30.7989 11.5111 32.0201V31.5143C11.4389 30.7916 11.3668 30.069 11.3668 29.3463C11.3531 28.8129 11.3772 28.2792 11.4389 27.7493C7.67645 26.5208 3.91037 25.2814 1.65132e-07 24.1974V28.4069Z" fill="#660035"/>
</svg>
