<svg width="62" height="58" viewBox="0 0 62 58" fill="none" xmlns="http://www.w3.org/2000/svg">
<path d="M62 31.1391C60.4933 30.0634 58.2063 29.3768 55.6446 29.3768C51.6782 29.3768 48.3686 31.0221 47.5987 33.2104H47.2682C46.5171 31.0079 43.1975 29.3481 39.2139 29.3481C36.648 29.3481 34.3621 30.039 32.8562 31.1179V49.6401C32.8562 54.25 29.0813 58 24.4413 58C19.8012 58 16.0264 54.2499 16.0264 49.6401C16.0264 48.6215 16.8573 47.7961 17.8826 47.7961C18.908 47.7961 19.7389 48.6215 19.7389 49.6401C19.7389 52.2161 21.8483 54.3117 24.4413 54.3117C27.0342 54.3117 29.1436 52.2161 29.1436 49.6401V31.1479C27.6372 30.0685 25.3503 29.3768 22.7832 29.3768C18.8167 29.3768 15.5072 31.0221 14.7373 33.2104H14.407C13.6558 31.0079 10.3361 29.3481 6.3526 29.3481C3.79245 29.3481 1.50665 30.0337 0 31.1082C1.21063 17.9752 13.6491 7.536 29.1437 6.75861V5.38005C29.1437 4.36131 29.9746 3.53591 30.9999 3.53591C32.0253 3.53591 32.8562 4.36141 32.8562 5.38005V6.75881C48.3617 7.53791 60.8059 17.9925 62 31.1391ZM4.48418 3.53591C4.48418 3.53591 1.79335 8.813 1.79335 10.2894C1.79335 11.7657 2.9981 12.9627 4.48418 12.9627C5.97026 12.9627 7.17501 11.7658 7.17501 10.2894C7.17501 8.8129 4.48418 3.53591 4.48418 3.53591ZM12.1022 0C12.1022 0 10.0837 3.95872 10.0837 5.06634C10.0837 6.17395 10.9874 7.07172 12.1022 7.07172C13.217 7.07172 14.1208 6.17385 14.1208 5.06634C14.1208 3.95883 12.1022 0 12.1022 0Z" fill="#C3BAB3"/>
</svg>
