<svg width="62" height="62" viewBox="0 0 62 62" fill="none" xmlns="http://www.w3.org/2000/svg">
<path d="M35.5744 12.1575L35.5804 12.1628C38.3971 14.9878 39.805 18.3944 39.805 22.3805C39.805 26.3696 38.3948 29.774 35.5751 32.5929C32.7562 35.4126 29.3518 36.822 25.3635 36.822H10.3197C9.38871 36.822 8.59513 36.4932 7.93597 35.8348C7.27833 35.1772 6.94951 34.3836 6.94951 33.4518C6.94951 32.5216 7.27909 31.7272 7.93597 31.0696C8.59513 30.4119 9.38871 30.0831 10.3197 30.0831H25.3612C27.489 30.0831 29.3055 29.3313 30.8099 27.8277C32.3127 26.3241 33.0645 24.5076 33.0645 22.3798C33.063 20.2512 32.312 18.4324 30.8099 16.9212L30.8046 16.9159C29.3017 15.4161 27.4867 14.6665 25.3612 14.6665H12.9131L15.7381 16.9462C16.4602 17.5333 16.8711 18.2889 16.9713 19.21C17.0693 20.1327 16.8255 20.9551 16.2393 21.6819C15.6538 22.4071 14.9004 22.8202 13.9793 22.9197C13.0574 23.0184 12.2327 22.7769 11.5036 22.1922L1.36943 14.0142C1.35197 13.9983 1.33298 13.9838 1.31476 13.9702C1.29577 13.9542 1.27603 13.9375 1.25628 13.9208C1.23806 13.9071 1.21983 13.8912 1.2016 13.8767L1.04517 13.734C0.661671 13.3725 0.38297 12.9556 0.209827 12.4817C0.18097 12.4043 0.155909 12.3253 0.130849 12.2456C0.108067 12.1658 0.0890827 12.0868 0.0716165 12.0048C0.0344059 11.8195 0.0108643 11.6274 0.0032703 11.4307C-0.00584251 11.2173 0.00402894 11.0093 0.0336456 10.8065L0.160465 10.2521C0.174135 10.2096 0.188564 10.1671 0.204511 10.1245L0.567505 9.4221C0.689009 9.24592 0.829498 9.07733 0.99125 8.91558C0.996566 8.90951 1.0034 8.90343 1.01024 8.89584L1.16819 8.74851C1.20009 8.71966 1.2335 8.69232 1.26615 8.66498C1.31324 8.62777 1.36108 8.59132 1.40892 8.55715L11.1847 0.736076C11.9145 0.157412 12.7392 -0.0802799 13.6611 0.023758C14.5815 0.127037 15.3333 0.543188 15.915 1.27145C16.4975 1.9982 16.7367 2.82215 16.6326 3.74254C16.5301 4.6637 16.1147 5.41702 15.3895 6.00252L12.983 7.92836H25.3635C29.3511 7.9276 32.7555 9.33781 35.5744 12.1575Z" transform="translate(11.0032 11.748)" fill="#C3BAB3"/>
<path d="M56 29C56 43.9117 43.9117 56 29 56V60C46.1208 60 60 46.1208 60 29H56ZM29 56C14.0883 56 2 43.9117 2 29H-2C-2 46.1208 11.8792 60 29 60V56ZM2 29C2 14.0883 14.0883 2 29 2V-2C11.8792 -2 -2 11.8792 -2 29H2ZM29 2C43.9117 2 56 14.0883 56 29H60C60 11.8792 46.1208 -2 29 -2V2Z" transform="translate(2 2)" fill="#C3BAB3"/>
</svg>
