<svg width="64" height="37" viewBox="0 0 64 37" fill="none" xmlns="http://www.w3.org/2000/svg">
<path d="M20.0098 7.08953L13.7151 5.27969L10.0049 0L6.29477 5.27969L0 7.08953L4.00201 12.1624L3.82139 18.5608L10.005 16.4162L16.1887 18.5608L16.0078 12.1624L20.0098 7.08953Z" transform="translate(21.9951 0.000244141)" fill="#C3BAB3"/>
<path d="M20.0101 7.08965L13.7152 5.27981L10.0052 0L6.29502 5.27969L0 7.08965L4.00214 12.1627L3.82152 18.5611L10.0052 16.4165L16.1884 18.5611L16.0081 12.1626L20.0101 7.08965Z" fill="#C3BAB3"/>
<path d="M20.0101 7.08965L13.7151 5.27981L10.0049 0L6.2949 5.27981L0 7.08965L4.00202 12.1626L3.82177 18.561L10.005 16.4163L16.1887 18.561L16.0078 12.1626L20.0101 7.08965Z" transform="translate(43.99 0.000244141)" fill="#C3BAB3"/>
<path d="M20.0097 7.08977L13.7149 5.27993L10.0049 0L6.2949 5.27993L0 7.08977L4.00189 12.1627L3.82139 18.561L10.005 16.4165L16.1886 18.561L16.0078 12.1627L20.0097 7.08977Z" transform="translate(32.9924 18.4392)" fill="#C3BAB3"/>
<path d="M20.0097 7.08977L13.7148 5.27993L10.0048 0L6.29477 5.27993L0 7.08977L4.00177 12.1628L3.82126 18.5611L10.0048 16.4166L16.1884 18.5611L16.0078 12.1627L20.0097 7.08977Z" transform="translate(10.9978 18.439)" fill="#C3BAB3"/>
</svg>
