<svg width="28" height="20" viewBox="0 0 28 20" fill="none" xmlns="http://www.w3.org/2000/svg">
<path d="M27.3636 0H0.636364C0.284455 0 0 0.279375 0 0.625V19.375C0 19.7206 0.284455 20 0.636364 20H27.3636C27.7149 20 28 19.7206 28 19.375V0.625C28 0.279375 27.7149 0 27.3636 0ZM26.7273 17.2381L18.844 9.49625L17.9442 10.38L26.4664 18.75H1.53364L10.0558 10.38L9.156 9.49625L1.27273 17.2381V1.25H26.7273V17.2381Z" fill="#222222"/>
<path d="M24.1685 0L12.7273 11.2369L1.28609 0H0V0.504375L12.2774 12.5625C12.5262 12.8069 12.9284 12.8069 13.1772 12.5625L25.4545 0.504375V0H24.1685Z" transform="translate(1.27271 1.25)" fill="#222222"/>
</svg>
