<svg width="768" height="1659" viewBox="0 0 768 1659" fill="none" xmlns="http://www.w3.org/2000/svg">
<path fill-rule="evenodd" clip-rule="evenodd" d="M1755.89 555.279C1814.36 570.486 1869.85 595.47 1920 629.174V1.32378C1839.99 36.2782 1759.97 36.2781 1702.55 36.2781C1647.16 36.2781 1581.56 11.6466 1382.49 1.32378C1323.53 -1.66978 1264.42 0.416092 1205.81 7.55833C1043.74 27.9995 873.498 79.1024 766.406 149.011C663.531 203.906 571.385 276.888 494.383 364.461C740.45 452.664 978.445 549.147 1205.81 653.805C1451.98 766.232 1687.93 885.608 1919.69 1008.66V886.017C1716.75 770.729 1536.39 672.202 1294.41 567.544C1343.56 543.014 1456.38 526.661 1542.52 526.661C1614.6 526.7 1686.36 536.359 1755.89 555.381V555.279ZM1205.81 895.829C1451.98 1006.62 1687.93 1125.59 1919.69 1250.79V1129.68C1688.24 1004.58 1452.29 885.608 1205.81 774.817C955.555 659.938 694.875 553.235 424.282 458.899C404.438 491.487 387.347 525.674 373.189 561.105C662.583 661.982 939.511 772.773 1205.81 895.829ZM763.034 1501.09C898.432 1572.64 1054.37 1615.97 1206.12 1638.56C1301.94 1652.27 1398.62 1659.1 1495.41 1659C1535.2 1658.82 1574.93 1656.05 1614.36 1650.72C1651.59 1645.08 1689.12 1641.67 1726.76 1640.5C1791.54 1639.18 1856.25 1645.39 1919.59 1659V1609.74C1687.83 1484.53 1451.88 1365.57 1205.71 1254.78C924.694 1127.63 633.46 1010.61 325.774 905.947C354.488 1182.92 532.908 1381.92 762.625 1500.99L763.034 1501.09ZM0 202.465V323.476C110.771 354.138 219.499 389.092 326.182 425.682C358.985 435.903 391.787 448.167 424.589 458.49C445.524 425.353 468.851 393.79 494.383 364.052C438.997 343.611 381.977 323.17 326.182 304.568C219.499 270.125 110.771 235.273 0 202.465ZM0 442.444V563.455C110.771 596.366 219.499 629.174 326.182 665.661C330.869 667.295 335.646 668.66 340.489 669.749C348.369 632.914 359.342 596.81 373.291 561.82C357.185 557.607 341.435 552.139 326.182 545.467C219.499 510.104 110.771 475.252 0 442.444ZM324.139 785.037L326.182 787.082C625.42 887.537 919.052 1003.98 1205.81 1135.91C1451.98 1246.7 1687.93 1365.67 1919.69 1490.77V1369.76C1687.93 1244.66 1451.98 1125.59 1205.81 1014.9C923.478 885.206 634.655 770.14 340.489 670.158C332.56 701.632 327.768 733.813 326.182 766.232C324.497 772.21 323.806 778.426 324.139 784.629V785.037ZM0 803.537C110.771 836.345 219.499 871.197 326.182 905.742V891.434C324.139 870.993 321.993 850.551 321.993 830.11C321.587 815.02 322.304 799.92 324.139 784.935C217.455 750.185 110.771 715.129 0 684.467V803.537Z" fill="white" fill-opacity="0.05"/>
</svg>
